<?xml version="1.0" encoding="UTF-8" standalone="no"?>
<svg
   xmlns:dc="http://purl.org/dc/elements/1.1/"
   xmlns:cc="http://creativecommons.org/ns#"
   xmlns:rdf="http://www.w3.org/1999/02/22-rdf-syntax-ns#"
   xmlns:svg="http://www.w3.org/2000/svg"
   xmlns="http://www.w3.org/2000/svg"
   xmlns:sodipodi="http://sodipodi.sourceforge.net/DTD/sodipodi-0.dtd"
   xmlns:inkscape="http://www.inkscape.org/namespaces/inkscape"
   inkscape:export-ydpi="16"
   inkscape:export-xdpi="16"
   inkscape:export-filename="K:\Resource\svg\Stompbox\icon\bluetooth\exclamation_dark.png"
   sodipodi:docname="exclamation_dark.svg"
   inkscape:version="1.0 (4035a4fb49, 2020-05-01)"
   id="svg8"
   version="1.1"
   viewBox="0 0 40 40"
   height="40mm"
   width="40mm">
  <defs
     id="defs2" />
  <sodipodi:namedview
     inkscape:window-maximized="1"
     inkscape:window-y="-8"
     inkscape:window-x="-8"
     inkscape:window-height="1017"
     inkscape:window-width="1920"
     inkscape:snap-global="false"
     inkscape:snap-center="true"
     inkscape:snap-object-midpoints="true"
     inkscape:snap-midpoints="true"
     inkscape:snap-smooth-nodes="true"
     inkscape:snap-intersection-paths="true"
     inkscape:object-paths="true"
     inkscape:snap-bbox-midpoints="true"
     inkscape:snap-bbox-edge-midpoints="true"
     inkscape:bbox-nodes="true"
     inkscape:bbox-paths="true"
     inkscape:snap-bbox="true"
     showgrid="false"
     inkscape:document-rotation="0"
     inkscape:current-layer="layer1"
     inkscape:document-units="mm"
     inkscape:cy="67.451027"
     inkscape:cx="32.034666"
     inkscape:zoom="5.6568542"
     inkscape:pageshadow="2"
     inkscape:pageopacity="0.0"
     borderopacity="1.0"
     bordercolor="#666666"
     pagecolor="#ffffff"
     id="base"
     showguides="false"
     inkscape:guide-bbox="true">
    <inkscape:grid
       id="grid833"
       type="xygrid" />
    <sodipodi:guide
       position="19.998047,14.292978"
       orientation="1,0"
       id="guide874" />
  </sodipodi:namedview>
  <metadata
     id="metadata5">
    <rdf:RDF>
      <cc:Work
         rdf:about="">
        <dc:format>image/svg+xml</dc:format>
        <dc:type
           rdf:resource="http://purl.org/dc/dcmitype/StillImage" />
        <dc:title></dc:title>
      </cc:Work>
    </rdf:RDF>
  </metadata>
  <g
     id="layer1"
     inkscape:groupmode="layer"
     inkscape:label="レイヤー 1">
    <path
       id="path872"
       style="color:#000000;font-style:normal;font-variant:normal;font-weight:normal;font-stretch:normal;font-size:medium;line-height:normal;font-family:sans-serif;font-variant-ligatures:normal;font-variant-position:normal;font-variant-caps:normal;font-variant-numeric:normal;font-variant-alternates:normal;font-variant-east-asian:normal;font-feature-settings:normal;font-variation-settings:normal;text-indent:0;text-align:start;text-decoration:none;text-decoration-line:none;text-decoration-style:solid;text-decoration-color:#000000;letter-spacing:normal;word-spacing:normal;text-transform:none;writing-mode:lr-tb;direction:ltr;text-orientation:mixed;dominant-baseline:auto;baseline-shift:baseline;text-anchor:start;white-space:normal;shape-padding:0;shape-margin:0;inline-size:0;clip-rule:nonzero;display:inline;overflow:visible;visibility:visible;opacity:1;isolation:auto;mix-blend-mode:normal;color-interpolation:sRGB;color-interpolation-filters:linearRGB;solid-color:#000000;solid-opacity:1;vector-effect:none;fill:#000000;fill-opacity:1;fill-rule:nonzero;stroke:none;stroke-width:7.45296;stroke-linecap:round;stroke-linejoin:round;stroke-miterlimit:4;stroke-dasharray:none;stroke-dashoffset:0;stroke-opacity:1;color-rendering:auto;image-rendering:auto;shape-rendering:auto;text-rendering:auto;enable-background:accumulate;stop-color:#000000;stop-opacity:1"
       d="M 75.628906 7.8730469 C 69.848455 7.8752746 64.240144 10.89183 61.195312 16.195312 L 31.697266 67.285156 L 2.1933594 118.38281 L 2.1992188 118.38281 C -4.1159346 129.29603 3.9558376 143.30241 16.564453 143.30469 L 75.589844 143.28906 L 134.58594 143.3125 C 147.21492 143.33518 155.3132 129.30176 148.97461 118.37695 L 148.98242 118.37695 L 119.46094 67.300781 L 89.970703 16.181641 L 89.962891 16.173828 C 87.676261 12.686684 85.41618 10.973845 82.876953 9.5449219 L 82.869141 9.5449219 C 82.866684 9.542458 82.863974 9.5395661 82.861328 9.5371094 C 80.907021 8.5853367 78.846801 8.0573304 76.787109 7.9140625 C 76.400917 7.8871998 76.01427 7.8728984 75.628906 7.8730469 z M 75.53125 45.701172 L 75.546875 45.701172 L 75.546875 45.708984 C 75.560103 45.708606 75.570756 45.701187 75.583984 45.701172 C 75.588898 45.701172 75.592743 45.701164 75.597656 45.701172 C 82.686565 45.709389 88.51 51.536272 88.509766 58.626953 C 88.511067 59.352097 88.436875 60.074197 88.316406 60.789062 L 80.861328 99.160156 L 70.320312 99.160156 L 62.863281 60.775391 L 62.908203 61.121094 C 62.747157 60.298967 62.671198 59.464708 62.671875 58.626953 C 62.671765 51.554917 68.467642 45.753433 75.53125 45.714844 L 75.53125 45.701172 z M 75.662109 107.88281 C 80.577084 107.88281 84.528762 111.67021 85.134766 116.43164 C 85.26514 117.23001 85.258416 117.76224 85.134766 118.76367 C 84.525302 123.52142 80.574428 127.30078 75.662109 127.30078 C 70.335562 127.30078 65.951172 122.9203 65.951172 117.59375 C 65.951172 112.26721 70.335562 107.88282 75.662109 107.88281 z "
       transform="scale(0.26458333)" />
    <g
       id="g857"
       style="opacity:1;fill:#ffffff"
       transform="translate(0.00195241,0.52916667)" />
    <g
       id="g864"
       style="opacity:1;fill:#ffffff"
       transform="matrix(0.80859789,0,0,0.80859789,3.8470239,6.8745952)" />
  </g>
</svg>
