<?xml version="1.0" encoding="UTF-8" standalone="no"?>
<svg
   xmlns:dc="http://purl.org/dc/elements/1.1/"
   xmlns:cc="http://creativecommons.org/ns#"
   xmlns:rdf="http://www.w3.org/1999/02/22-rdf-syntax-ns#"
   xmlns:svg="http://www.w3.org/2000/svg"
   xmlns="http://www.w3.org/2000/svg"
   xmlns:sodipodi="http://sodipodi.sourceforge.net/DTD/sodipodi-0.dtd"
   xmlns:inkscape="http://www.inkscape.org/namespaces/inkscape"
   sodipodi:docname="icon_arrow_r.svg"
   inkscape:version="1.0 (4035a4fb49, 2020-05-01)"
   id="svg8"
   version="1.1"
   viewBox="0 0 40 40"
   height="40mm"
   width="40mm">
  <defs
     id="defs2" />
  <sodipodi:namedview
     inkscape:window-maximized="0"
     inkscape:window-y="0"
     inkscape:window-x="130"
     inkscape:window-height="1040"
     inkscape:window-width="1638"
     fit-margin-bottom="0"
     fit-margin-right="0"
     fit-margin-left="0"
     fit-margin-top="0"
     showgrid="true"
     inkscape:document-rotation="0"
     inkscape:current-layer="layer1"
     inkscape:document-units="mm"
     inkscape:cy="107.02504"
     inkscape:cx="110.85258"
     inkscape:zoom="1.7951945"
     inkscape:pageshadow="2"
     inkscape:pageopacity="0"
     borderopacity="1.0"
     bordercolor="#666666"
     pagecolor="#a0a0a0"
     id="base">
    <inkscape:grid
       originy="-95.000003"
       originx="-63.250003"
       id="grid833"
       type="xygrid" />
  </sodipodi:namedview>
  <metadata
     id="metadata5">
    <rdf:RDF>
      <cc:Work
         rdf:about="">
        <dc:format>image/svg+xml</dc:format>
        <dc:type
           rdf:resource="http://purl.org/dc/dcmitype/StillImage" />
        <dc:title />
      </cc:Work>
    </rdf:RDF>
  </metadata>
  <g
     transform="translate(-63.250002,-95.000002)"
     id="layer1"
     inkscape:groupmode="layer"
     inkscape:label="レイヤー 1">
    <path
       transform="matrix(0.26458333,0,0,0.26458333,63.250002,95.000002)"
       d="M 75.703125 -0.001953125 A 12.014363 12.014363 0 0 0 75.390625 0 A 12.014363 12.014363 0 0 0 67.09375 3.5214844 A 12.014363 12.014363 0 0 0 67.09375 20.507812 L 110.16016 63.572266 L 12.017578 63.572266 A 12.014363 12.014363 0 0 0 0 75.589844 A 12.014363 12.014363 0 0 0 12.017578 87.607422 L 110.16016 87.607422 L 67.09375 130.67383 A 12.014363 12.014363 0 0 0 67.09375 147.66016 A 12.014363 12.014363 0 0 0 84.087891 147.66016 L 147.53906 84.208984 L 147.58203 84.167969 A 12.014363 12.014363 0 0 0 147.66016 84.087891 A 12.014363 12.014363 0 0 0 148.0625 83.666016 A 12.014363 12.014363 0 0 0 148.25586 83.447266 A 12.014363 12.014363 0 0 0 148.80273 82.765625 A 12.014363 12.014363 0 0 0 149.87695 81.033203 A 12.014363 12.014363 0 0 0 150.24414 80.240234 A 12.014363 12.014363 0 0 0 150.45703 79.697266 A 12.014363 12.014363 0 0 0 150.55273 79.421875 A 12.014363 12.014363 0 0 0 150.64258 79.144531 A 12.014363 12.014363 0 0 0 150.80078 78.583984 A 12.014363 12.014363 0 0 0 150.98828 77.728516 A 12.014363 12.014363 0 0 0 151.07812 77.154297 A 12.014363 12.014363 0 0 0 151.16016 76.283203 A 12.014363 12.014363 0 0 0 151.17969 75.701172 A 12.014363 12.014363 0 0 0 151.18164 75.589844 A 12.014363 12.014363 0 0 0 151.06836 73.957031 A 12.014363 12.014363 0 0 0 150.7832 72.527344 A 12.014363 12.014363 0 0 0 150.70508 72.248047 A 12.014363 12.014363 0 0 0 150.62109 71.96875 A 12.014363 12.014363 0 0 0 149.97461 70.345703 A 12.014363 12.014363 0 0 0 149.56445 69.572266 A 12.014363 12.014363 0 0 0 148.20898 67.679688 A 12.014363 12.014363 0 0 0 147.53516 66.966797 A 12.014363 12.014363 0 0 0 147.5 66.933594 L 84.087891 3.5214844 A 12.014363 12.014363 0 0 0 75.703125 -0.001953125 z "
       style="color:#000000;font-style:normal;font-variant:normal;font-weight:normal;font-stretch:normal;font-size:medium;line-height:normal;font-family:sans-serif;font-variant-ligatures:normal;font-variant-position:normal;font-variant-caps:normal;font-variant-numeric:normal;font-variant-alternates:normal;font-variant-east-asian:normal;font-feature-settings:normal;font-variation-settings:normal;text-indent:0;text-align:start;text-decoration:none;text-decoration-line:none;text-decoration-style:solid;text-decoration-color:#000000;letter-spacing:normal;word-spacing:normal;text-transform:none;writing-mode:lr-tb;direction:ltr;text-orientation:mixed;dominant-baseline:auto;baseline-shift:baseline;text-anchor:start;white-space:normal;shape-padding:0;shape-margin:0;inline-size:0;clip-rule:nonzero;display:inline;overflow:visible;visibility:visible;opacity:1;isolation:auto;mix-blend-mode:normal;color-interpolation:sRGB;color-interpolation-filters:linearRGB;solid-color:#000000;solid-opacity:1;vector-effect:none;fill:#000000;fill-opacity:1;fill-rule:nonzero;stroke:none;stroke-width:24.0287;stroke-linecap:round;stroke-linejoin:round;stroke-miterlimit:4;stroke-dasharray:none;stroke-dashoffset:0;stroke-opacity:1;color-rendering:auto;image-rendering:auto;shape-rendering:auto;text-rendering:auto;enable-background:accumulate;stop-color:#000000;stop-opacity:1"
       id="path12" />
  </g>
</svg>
