<?xml version="1.0" encoding="UTF-8" standalone="no"?>
<svg
   xmlns:dc="http://purl.org/dc/elements/1.1/"
   xmlns:cc="http://creativecommons.org/ns#"
   xmlns:rdf="http://www.w3.org/1999/02/22-rdf-syntax-ns#"
   xmlns:svg="http://www.w3.org/2000/svg"
   xmlns="http://www.w3.org/2000/svg"
   xmlns:sodipodi="http://sodipodi.sourceforge.net/DTD/sodipodi-0.dtd"
   xmlns:inkscape="http://www.inkscape.org/namespaces/inkscape"
   width="40mm"
   height="40mm"
   viewBox="0 0 40 40"
   version="1.1"
   id="svg868"
   inkscape:version="1.0 (4035a4fb49, 2020-05-01)"
   sodipodi:docname="icon_return_2.svg">
  <defs
     id="defs862" />
  <sodipodi:namedview
     id="base"
     pagecolor="#cccccc"
     bordercolor="#666666"
     borderopacity="1.0"
     inkscape:pageopacity="1"
     inkscape:pageshadow="2"
     inkscape:zoom="4.4306695"
     inkscape:cx="57.324917"
     inkscape:cy="95.368376"
     inkscape:document-units="mm"
     inkscape:current-layer="layer1"
     inkscape:document-rotation="0"
     showgrid="true"
     fit-margin-top="0"
     fit-margin-left="0"
     fit-margin-right="0"
     fit-margin-bottom="0"
     inkscape:window-width="1638"
     inkscape:window-height="1040"
     inkscape:window-x="266"
     inkscape:window-y="0"
     inkscape:window-maximized="0"
     inkscape:snap-global="true"
     inkscape:snap-bbox="true"
     inkscape:bbox-paths="true"
     inkscape:bbox-nodes="true"
     inkscape:snap-bbox-edge-midpoints="true"
     inkscape:snap-bbox-midpoints="true"
     inkscape:object-paths="true"
     inkscape:snap-intersection-paths="true"
     inkscape:snap-smooth-nodes="true"
     inkscape:snap-midpoints="true"
     inkscape:snap-object-midpoints="true"
     inkscape:snap-center="true">
    <inkscape:grid
       type="xygrid"
       id="grid847" />
  </sodipodi:namedview>
  <metadata
     id="metadata865">
    <rdf:RDF>
      <cc:Work
         rdf:about="">
        <dc:format>image/svg+xml</dc:format>
        <dc:type
           rdf:resource="http://purl.org/dc/dcmitype/StillImage" />
        <dc:title />
      </cc:Work>
    </rdf:RDF>
  </metadata>
  <g
     inkscape:label="レイヤー 1"
     inkscape:groupmode="layer"
     id="layer1"
     transform="translate(-59.490269,-85.892167)">
    <path
       id="path850"
       style="fill:#000000;stroke:none;stroke-width:15.1181px;stroke-linecap:butt;stroke-linejoin:miter;stroke-opacity:1"
       d="M 136.25391 -0.50976562 C 135.78851 -0.51860679 135.3246 -0.51441364 134.86328 -0.49804688 C 94.745632 -0.49124373 54.627276 -0.51209227 14.509766 -0.48828125 L 14.412109 -0.48828125 C 10.352987 -0.41616786 6.1620052 1.0758374 3.4980469 4.2460938 C 0.51948814 7.7066782 -0.6838211 12.418475 -0.5 16.917969 C -0.49395276 56.732067 -0.51139972 96.545601 -0.49023438 136.35938 C -0.21769264 141.13321 1.7281846 146.08812 5.703125 148.96094 C 8.7438192 151.18931 12.625913 151.81332 16.316406 151.68164 C 56.330491 151.67408 96.345592 151.69273 136.35938 151.67383 C 141.13406 151.40208 146.08726 149.4525 148.96094 145.47852 C 151.19011 142.4386 151.81288 138.55323 151.68164 134.86328 C 151.67559 94.849198 151.69303 54.836055 151.67188 14.822266 C 151.39982 10.049361 149.45212 5.0963661 145.47852 2.2246094 C 142.81918 0.27215835 139.51168 -0.44787749 136.25391 -0.50976562 z M 39.042969 40.154297 A 5.6692912 5.6692912 0 0 1 39.111328 40.154297 A 5.6692912 5.6692912 0 0 1 43.072266 41.8125 A 5.6692912 5.6692912 0 0 1 43.072266 49.830078 L 34.488281 58.414062 L 112.11523 58.414062 C 119.62013 58.414025 125.96406 61.432206 130.04688 66.025391 C 134.12969 70.618537 136.04883 76.520166 136.04883 82.345703 C 136.04883 88.171202 134.12968 94.074784 130.04688 98.667969 C 125.96406 103.26112 119.62013 106.2793 112.11523 106.2793 L 69.5 106.2793 A 5.6692913 5.6692913 0 0 1 63.832031 100.60938 A 5.6692913 5.6692913 0 0 1 69.5 94.939453 L 112.11523 94.939453 C 116.78548 94.939453 119.56751 93.394029 121.57227 91.138672 C 123.57703 88.883314 124.70898 85.651542 124.70898 82.345703 C 124.70898 79.039864 123.57702 75.810007 121.57227 73.554688 C 119.56751 71.29933 116.78548 69.753868 112.11523 69.753906 L 34.488281 69.753906 L 43.072266 78.337891 A 5.6692912 5.6692912 0 0 1 43.072266 86.355469 A 5.6692912 5.6692912 0 0 1 35.056641 86.355469 L 16.902344 68.199219 A 5.6692913 5.6692913 0 0 1 16.792969 68.091797 A 5.6698582 5.6698582 0 0 1 16.785156 68.083984 A 5.6692913 5.6692913 0 0 1 16.654297 67.947266 A 5.6692913 5.6692913 0 0 1 16.519531 67.798828 A 5.6692913 5.6692913 0 0 1 16.269531 67.486328 A 5.6692913 5.6692913 0 0 1 16.179688 67.365234 A 5.6698582 5.6698582 0 0 1 16.134766 67.298828 A 5.6692913 5.6692913 0 0 1 16.082031 67.222656 A 5.6698582 5.6698582 0 0 1 16.03125 67.146484 A 5.6692913 5.6692913 0 0 1 15.953125 67.019531 A 5.6698582 5.6698582 0 0 1 15.927734 66.978516 A 5.6692913 5.6692913 0 0 1 15.876953 66.888672 A 5.6698582 5.6698582 0 0 1 15.814453 66.775391 A 5.6692913 5.6692913 0 0 1 15.806641 66.761719 A 5.6698582 5.6698582 0 0 1 15.732422 66.617188 A 5.6692913 5.6692913 0 0 1 15.662109 66.472656 A 5.6698582 5.6698582 0 0 1 15.654297 66.455078 A 5.6692913 5.6692913 0 0 1 15.574219 66.273438 A 5.6692913 5.6692913 0 0 1 15.5 66.087891 A 5.6692913 5.6692913 0 0 1 15.435547 65.908203 A 5.6698582 5.6698582 0 0 1 15.429688 65.896484 A 5.6692913 5.6692913 0 0 1 15.373047 65.716797 A 5.6698582 5.6698582 0 0 1 15.371094 65.707031 A 5.6692913 5.6692913 0 0 1 15.28125 65.367188 A 5.6698582 5.6698582 0 0 1 15.263672 65.291016 A 5.6692913 5.6692913 0 0 1 15.230469 65.125 A 5.6692913 5.6692913 0 0 1 15.197266 64.927734 A 5.6692913 5.6692913 0 0 1 15.169922 64.728516 A 5.6692913 5.6692913 0 0 1 15.150391 64.535156 A 5.6698582 5.6698582 0 0 1 15.150391 64.527344 A 5.6692913 5.6692913 0 0 1 15.140625 64.361328 A 5.6698582 5.6698582 0 0 1 15.138672 64.318359 A 5.6692913 5.6692913 0 0 1 15.132812 64.083984 A 5.6692913 5.6692913 0 0 1 15.144531 63.730469 A 5.6692913 5.6692913 0 0 1 15.158203 63.544922 A 5.6698582 5.6698582 0 0 1 15.166016 63.488281 A 5.6692913 5.6692913 0 0 1 15.183594 63.333984 A 5.6698582 5.6698582 0 0 1 15.183594 63.330078 A 5.6692913 5.6692913 0 0 1 15.291016 62.757812 A 5.6698582 5.6698582 0 0 1 15.308594 62.693359 A 5.6692913 5.6692913 0 0 1 15.339844 62.568359 A 5.6698582 5.6698582 0 0 1 15.353516 62.519531 A 5.6692913 5.6692913 0 0 1 15.404297 62.355469 A 5.6692913 5.6692913 0 0 1 15.539062 61.978516 A 5.6692913 5.6692913 0 0 1 15.701172 61.613281 A 5.6698582 5.6698582 0 0 1 15.763672 61.486328 A 5.6692913 5.6692913 0 0 1 15.779297 61.457031 A 5.6698582 5.6698582 0 0 1 15.816406 61.388672 A 5.6692913 5.6692913 0 0 1 15.880859 61.271484 A 5.6698582 5.6698582 0 0 1 15.898438 61.238281 A 5.6692913 5.6692913 0 0 1 15.990234 61.087891 A 5.6692913 5.6692913 0 0 1 16.099609 60.919922 A 5.6692913 5.6692913 0 0 1 16.214844 60.755859 A 5.6692913 5.6692913 0 0 1 16.333984 60.595703 A 5.6692913 5.6692913 0 0 1 16.460938 60.439453 A 5.6698582 5.6698582 0 0 1 16.552734 60.332031 A 5.6692913 5.6692913 0 0 1 16.591797 60.289062 A 5.6692913 5.6692913 0 0 1 16.728516 60.142578 A 5.6698582 5.6698582 0 0 1 16.792969 60.076172 L 16.828125 60.041016 L 35.056641 41.8125 A 5.6692912 5.6692912 0 0 1 38.84375 40.158203 A 5.6692912 5.6692912 0 0 1 39.042969 40.154297 z "
       transform="matrix(0.26458333,0,0,0.26458333,59.490269,85.892167)" />
  </g>
</svg>
