<?xml version="1.0" encoding="UTF-8" standalone="no"?>
<svg
   xmlns:dc="http://purl.org/dc/elements/1.1/"
   xmlns:cc="http://creativecommons.org/ns#"
   xmlns:rdf="http://www.w3.org/1999/02/22-rdf-syntax-ns#"
   xmlns:svg="http://www.w3.org/2000/svg"
   xmlns="http://www.w3.org/2000/svg"
   xmlns:sodipodi="http://sodipodi.sourceforge.net/DTD/sodipodi-0.dtd"
   xmlns:inkscape="http://www.inkscape.org/namespaces/inkscape"
   sodipodi:docname="icon_triangle_up.svg"
   inkscape:version="1.0 (4035a4fb49, 2020-05-01)"
   id="svg868"
   version="1.1"
   viewBox="0 0 40 40"
   height="40mm"
   width="40mm">
  <defs
     id="defs862" />
  <sodipodi:namedview
     inkscape:snap-center="true"
     inkscape:snap-object-midpoints="true"
     inkscape:snap-midpoints="true"
     inkscape:snap-smooth-nodes="true"
     inkscape:snap-intersection-paths="true"
     inkscape:object-paths="true"
     inkscape:snap-bbox-midpoints="true"
     inkscape:snap-bbox-edge-midpoints="true"
     inkscape:bbox-nodes="true"
     inkscape:bbox-paths="true"
     inkscape:snap-bbox="true"
     inkscape:snap-global="false"
     inkscape:window-maximized="0"
     inkscape:window-y="0"
     inkscape:window-x="266"
     inkscape:window-height="1040"
     inkscape:window-width="1638"
     fit-margin-bottom="0"
     fit-margin-right="0"
     fit-margin-left="0"
     fit-margin-top="0"
     showgrid="true"
     inkscape:document-rotation="0"
     inkscape:current-layer="layer1"
     inkscape:document-units="mm"
     inkscape:cy="213.91239"
     inkscape:cx="1.3275126"
     inkscape:zoom="1.1626579"
     inkscape:pageshadow="2"
     inkscape:pageopacity="1"
     borderopacity="1.0"
     bordercolor="#666666"
     pagecolor="#cccccc"
     id="base">
    <inkscape:grid
       id="grid847"
       type="xygrid" />
  </sodipodi:namedview>
  <metadata
     id="metadata865">
    <rdf:RDF>
      <cc:Work
         rdf:about="">
        <dc:format>image/svg+xml</dc:format>
        <dc:type
           rdf:resource="http://purl.org/dc/dcmitype/StillImage" />
        <dc:title />
      </cc:Work>
    </rdf:RDF>
  </metadata>
  <g
     transform="translate(-59.490269,-85.892167)"
     id="layer1"
     inkscape:groupmode="layer"
     inkscape:label="レイヤー 1">
    <path
       id="path850"
       style="fill:#000000;stroke:none;stroke-width:15.1181px;stroke-linecap:butt;stroke-linejoin:miter;stroke-opacity:1"
       d="M 15.117188,0 C -9.2273622e-4,0 0,15.117188 0,15.117188 V 136.0625 c 0,0 -9.2273622e-4,15.11914 15.117188,15.11914 H 136.0625 c 0,0 15.11914,-0.001 15.11914,-15.11914 V 15.117188 c 0,0 -0.001,-15.117188 -15.11914,-15.117188 z m 60.492187,22.958984 c 2.361879,0.0062 4.541686,1.269841 5.720703,3.316407 l 24.111332,42.082031 24.40039,41.916018 c 2.59331,4.42764 -0.61692,9.99508 -5.74805,9.96875 l -48.511719,-0.1875 -48.492187,0.1875 c -3.654237,0.009 -6.625223,-2.94344 -6.638672,-6.59766 -0.01019,-1.1829 0.296664,-2.34694 0.888672,-3.37109 L 45.742188,68.357422 69.853516,26.275391 c 1.185287,-2.057451 3.381418,-3.322817 5.755859,-3.316407 z m -0.0078,19.921875 -18.382812,32.09375 c -0.0071,0.0072 -0.01431,0.01434 -0.02148,0.02148 l -18.589844,31.949216 36.953125,-0.125 c 0.02083,-1e-4 0.04167,-1e-4 0.0625,0 l 36.953123,0.125 -18.589842,-31.949216 c -0.0072,-0.0071 -0.01434,-0.01431 -0.02148,-0.02148 z"
       transform="matrix(0.26458333,0,0,0.26458333,59.490269,85.892167)"
       sodipodi:nodetypes="sccscscsscccccccccccccccccccccc" />
  </g>
</svg>
