<?xml version="1.0" encoding="UTF-8" standalone="no"?>
<svg
   xmlns:dc="http://purl.org/dc/elements/1.1/"
   xmlns:cc="http://creativecommons.org/ns#"
   xmlns:rdf="http://www.w3.org/1999/02/22-rdf-syntax-ns#"
   xmlns:svg="http://www.w3.org/2000/svg"
   xmlns="http://www.w3.org/2000/svg"
   xmlns:sodipodi="http://sodipodi.sourceforge.net/DTD/sodipodi-0.dtd"
   xmlns:inkscape="http://www.inkscape.org/namespaces/inkscape"
   width="40mm"
   height="40mm"
   viewBox="0 0 40 40"
   version="1.1"
   id="svg868"
   inkscape:version="1.0 (4035a4fb49, 2020-05-01)"
   sodipodi:docname="icon_return.svg">
  <defs
     id="defs862" />
  <sodipodi:namedview
     id="base"
     pagecolor="#cccccc"
     bordercolor="#666666"
     borderopacity="1.0"
     inkscape:pageopacity="1"
     inkscape:pageshadow="2"
     inkscape:zoom="1.7258759"
     inkscape:cx="35.015583"
     inkscape:cy="29.211675"
     inkscape:document-units="mm"
     inkscape:current-layer="layer1"
     inkscape:document-rotation="0"
     showgrid="true"
     fit-margin-top="0"
     fit-margin-left="0"
     fit-margin-right="0"
     fit-margin-bottom="0"
     inkscape:window-width="1638"
     inkscape:window-height="1040"
     inkscape:window-x="266"
     inkscape:window-y="0"
     inkscape:window-maximized="0"
     inkscape:snap-global="true"
     inkscape:snap-bbox="true"
     inkscape:bbox-paths="true"
     inkscape:bbox-nodes="true"
     inkscape:snap-bbox-edge-midpoints="true"
     inkscape:snap-bbox-midpoints="true"
     inkscape:object-paths="true"
     inkscape:snap-intersection-paths="true"
     inkscape:snap-smooth-nodes="true"
     inkscape:snap-midpoints="true"
     inkscape:snap-object-midpoints="true"
     inkscape:snap-center="true">
    <inkscape:grid
       type="xygrid"
       id="grid847" />
  </sodipodi:namedview>
  <metadata
     id="metadata865">
    <rdf:RDF>
      <cc:Work
         rdf:about="">
        <dc:format>image/svg+xml</dc:format>
        <dc:type
           rdf:resource="http://purl.org/dc/dcmitype/StillImage" />
        <dc:title />
      </cc:Work>
    </rdf:RDF>
  </metadata>
  <g
     inkscape:label="レイヤー 1"
     inkscape:groupmode="layer"
     id="layer1"
     transform="translate(-59.490269,-85.892167)">
    <path
       sodipodi:nodetypes="cccccccccccsscccccccccssc"
       id="path850"
       style="fill:#000000;stroke:none;stroke-width:4px;stroke-linecap:butt;stroke-linejoin:miter;stroke-opacity:1"
       d="m 59.490269,89.892163 v 32.000007 c 0,0 0,4 4,4 h 31.999996 c 0,0 4,0 4,-4 V 89.892163 c 0,0 0,-3.999996 -4,-3.999996 H 63.490269 c -4,0 -4,3.999996 -4,3.999996 z m 31.218746,7.546884 h 3.960938 v 7.203113 c 0,3.034 -2.416867,5.57813 -5.578124,5.57813 H 75.349642 v 3.42969 c 0.0124,0.52627 -0.548071,0.864 -1.007812,0.60941 l -9.679687,-5.42186 c -0.474254,-0.25747 -0.474254,-0.93763 0,-1.19524 l 9.679687,-5.39063 c 0.11384,-0.0635 0.237172,-0.0952 0.367188,-0.0862 0.352856,0.0227 0.633065,0.31824 0.640625,0.67185 v 3.42188 h 13.742186 c 0.665045,0 1.617188,-1.0696 1.617188,-1.6172 z" />
  </g>
</svg>
