<?xml version="1.0" encoding="UTF-8" standalone="no"?>
<svg
   xmlns:dc="http://purl.org/dc/elements/1.1/"
   xmlns:cc="http://creativecommons.org/ns#"
   xmlns:rdf="http://www.w3.org/1999/02/22-rdf-syntax-ns#"
   xmlns:svg="http://www.w3.org/2000/svg"
   xmlns="http://www.w3.org/2000/svg"
   xmlns:sodipodi="http://sodipodi.sourceforge.net/DTD/sodipodi-0.dtd"
   xmlns:inkscape="http://www.inkscape.org/namespaces/inkscape"
   inkscape:version="1.0 (4035a4fb49, 2020-05-01)"
   sodipodi:docname="icon_delete.svg"
   id="svg8"
   version="1.1"
   viewBox="0 0 40.000001 40"
   height="40mm"
   width="40mm">
  <defs
     id="defs2" />
  <sodipodi:namedview
     fit-margin-bottom="0"
     fit-margin-right="0"
     fit-margin-left="0"
     fit-margin-top="0"
     inkscape:window-maximized="0"
     inkscape:window-y="20"
     inkscape:window-x="237"
     inkscape:window-height="981"
     inkscape:window-width="1638"
     inkscape:snap-text-baseline="false"
     inkscape:snap-center="true"
     inkscape:snap-object-midpoints="true"
     inkscape:snap-midpoints="true"
     inkscape:snap-smooth-nodes="true"
     inkscape:snap-intersection-paths="true"
     inkscape:object-paths="true"
     inkscape:snap-bbox-midpoints="true"
     inkscape:snap-bbox-edge-midpoints="true"
     inkscape:bbox-nodes="true"
     inkscape:bbox-paths="true"
     inkscape:snap-bbox="true"
     showgrid="false"
     inkscape:document-rotation="0"
     inkscape:current-layer="layer2"
     inkscape:document-units="mm"
     inkscape:cy="33.37063"
     inkscape:cx="253.81435"
     inkscape:zoom="1.3156915"
     inkscape:pageshadow="2"
     inkscape:pageopacity="0"
     borderopacity="1.0"
     bordercolor="#666666"
     pagecolor="#c0c0c0"
     id="base" />
  <metadata
     id="metadata5">
    <rdf:RDF>
      <cc:Work
         rdf:about="">
        <dc:format>image/svg+xml</dc:format>
        <dc:type
           rdf:resource="http://purl.org/dc/dcmitype/StillImage" />
        <dc:title />
      </cc:Work>
    </rdf:RDF>
  </metadata>
  <g
     transform="translate(-100.27036,-226.42959)"
     style="display:inline;opacity:0.532374"
     id="layer1"
     inkscape:groupmode="layer"
     inkscape:label="レイヤー 1" />
  <g
     transform="translate(-100.27036,-226.42959)"
     inkscape:label="レイヤー 2"
     id="layer2"
     inkscape:groupmode="layer">
    <path
       d="m 104.27032,226.42959 c -4.00001,0 -3.99996,4.00039 -3.99996,4.00039 v 31.99966 c 0,0 0.005,3.99995 3.99996,3.99995 h 32.00008 c 4,0 3.99996,-3.99995 3.99996,-3.99995 v -31.99966 c 0,0 4e-5,-4.00039 -3.99996,-4.00039 z m 13.14259,4.88639 h 5.71534 l 1.64234,1.68209 h 7.27209 l -0.42052,3.36335 h -22.70359 l -0.42052,-3.36335 h 7.27252 z m -7.23277,6.7271 h 20.19601 l -0.0596,10.5637 c -0.0579,10.18874 -0.0753,10.58942 -0.48795,11.29193 -0.23533,0.40057 -0.75553,0.92079 -1.15612,1.15612 -0.69034,0.40557 -1.11244,0.43031 -8.08634,0.47627 -5.96669,0.0393 -7.51638,-0.008 -8.19829,-0.25412 h -4.4e-4 c -1.01589,-0.36567 -1.69233,-1.10098 -1.98636,-2.15968 -0.13764,-0.49562 -0.21925,-4.55136 -0.21999,-10.93106 z"
       style="opacity:0.999;fill:#000000;stroke:none;stroke-width:3.99999px;stroke-linecap:butt;stroke-linejoin:miter;stroke-opacity:1"
       id="path836" />
  </g>
</svg>
