<?xml version="1.0" encoding="UTF-8" standalone="no"?>
<svg
   xmlns:dc="http://purl.org/dc/elements/1.1/"
   xmlns:cc="http://creativecommons.org/ns#"
   xmlns:rdf="http://www.w3.org/1999/02/22-rdf-syntax-ns#"
   xmlns:svg="http://www.w3.org/2000/svg"
   xmlns="http://www.w3.org/2000/svg"
   xmlns:sodipodi="http://sodipodi.sourceforge.net/DTD/sodipodi-0.dtd"
   xmlns:inkscape="http://www.inkscape.org/namespaces/inkscape"
   sodipodi:docname="icon_triangle_left.svg"
   inkscape:version="1.0 (4035a4fb49, 2020-05-01)"
   id="svg868"
   version="1.1"
   viewBox="0 0 40 40"
   height="40mm"
   width="40mm">
  <defs
     id="defs862" />
  <sodipodi:namedview
     inkscape:snap-center="true"
     inkscape:snap-object-midpoints="true"
     inkscape:snap-midpoints="true"
     inkscape:snap-smooth-nodes="true"
     inkscape:snap-intersection-paths="true"
     inkscape:object-paths="true"
     inkscape:snap-bbox-midpoints="true"
     inkscape:snap-bbox-edge-midpoints="true"
     inkscape:bbox-nodes="true"
     inkscape:bbox-paths="true"
     inkscape:snap-bbox="true"
     inkscape:snap-global="false"
     inkscape:window-maximized="0"
     inkscape:window-y="0"
     inkscape:window-x="266"
     inkscape:window-height="1040"
     inkscape:window-width="1638"
     fit-margin-bottom="0"
     fit-margin-right="0"
     fit-margin-left="0"
     fit-margin-top="0"
     showgrid="true"
     inkscape:document-rotation="0"
     inkscape:current-layer="layer1"
     inkscape:document-units="mm"
     inkscape:cy="213.91239"
     inkscape:cx="1.3275126"
     inkscape:zoom="1.1626579"
     inkscape:pageshadow="2"
     inkscape:pageopacity="1"
     borderopacity="1.0"
     bordercolor="#666666"
     pagecolor="#cccccc"
     id="base">
    <inkscape:grid
       id="grid847"
       type="xygrid" />
  </sodipodi:namedview>
  <metadata
     id="metadata865">
    <rdf:RDF>
      <cc:Work
         rdf:about="">
        <dc:format>image/svg+xml</dc:format>
        <dc:type
           rdf:resource="http://purl.org/dc/dcmitype/StillImage" />
        <dc:title />
      </cc:Work>
    </rdf:RDF>
  </metadata>
  <g
     transform="translate(-59.490269,-85.892167)"
     id="layer1"
     inkscape:groupmode="layer"
     inkscape:label="レイヤー 1">
    <path
       id="path850"
       style="fill:#000000;stroke:none;stroke-width:4px;stroke-linecap:butt;stroke-linejoin:miter;stroke-opacity:1"
       d="m 59.490164,121.89239 c 0,3.99999 3.999754,3.99975 3.999754,3.99975 l 32.000116,0 c 0,0 4.000272,2.4e-4 4.000275,-3.99975 l 7e-6,-32.00013 c 0,0 -2.73e-4,-4.000262 -4.000271,-4.000265 l -32.000123,8e-6 c 0,0 -3.999755,2.65e-4 -3.999756,4.000271 z m 6.074565,-16.00523 c 0.0016,-0.62491 0.33598,-1.20165 0.877462,-1.5136 l 11.134204,-6.379459 11.090286,-6.455934 c 1.171464,-0.68616 2.644517,0.163222 2.637561,1.520832 l -0.0496,12.835401 0.0496,12.83022 c 0.0024,0.96685 -0.778788,1.75292 -1.745398,1.75672 -0.312979,0.003 -0.620956,-0.0785 -0.891938,-0.23517 L 77.576394,113.78949 66.4422,107.41003 c -0.54437,-0.31361 -0.879164,-0.89466 -0.877506,-1.52288 z m 5.271,0.002 8.49147,4.86379 c 0.0013,0.002 0.0045,0.004 0.0058,0.006 l 8.453228,4.91857 -0.03308,-9.77718 c 8.31e-4,-0.005 -4.33e-4,-0.0113 3.54e-4,-0.0164 l 0.03307,-9.777192 -8.453223,4.918572 c -0.0017,0.001 -0.0044,0.003 -0.0057,0.006 z"
       sodipodi:nodetypes="sccscscsscccccccccccccccccccccc" />
  </g>
</svg>
