<?xml version="1.0" encoding="UTF-8" standalone="no"?>
<svg
   xmlns:dc="http://purl.org/dc/elements/1.1/"
   xmlns:cc="http://creativecommons.org/ns#"
   xmlns:rdf="http://www.w3.org/1999/02/22-rdf-syntax-ns#"
   xmlns:svg="http://www.w3.org/2000/svg"
   xmlns="http://www.w3.org/2000/svg"
   xmlns:sodipodi="http://sodipodi.sourceforge.net/DTD/sodipodi-0.dtd"
   xmlns:inkscape="http://www.inkscape.org/namespaces/inkscape"
   width="40mm"
   height="40mm"
   viewBox="0 0 40.000001 40"
   version="1.1"
   id="svg8"
   sodipodi:docname="icon_garbage.svg"
   inkscape:version="1.0 (4035a4fb49, 2020-05-01)">
  <defs
     id="defs2" />
  <sodipodi:namedview
     id="base"
     pagecolor="#c0c0c0"
     bordercolor="#666666"
     borderopacity="1.0"
     inkscape:pageopacity="0"
     inkscape:pageshadow="2"
     inkscape:zoom="1.8124758"
     inkscape:cx="16.600769"
     inkscape:cy="156.52073"
     inkscape:document-units="mm"
     inkscape:current-layer="layer2"
     inkscape:document-rotation="0"
     showgrid="false"
     inkscape:snap-bbox="true"
     inkscape:bbox-paths="true"
     inkscape:bbox-nodes="true"
     inkscape:snap-bbox-edge-midpoints="true"
     inkscape:snap-bbox-midpoints="true"
     inkscape:object-paths="true"
     inkscape:snap-intersection-paths="true"
     inkscape:snap-smooth-nodes="true"
     inkscape:snap-midpoints="true"
     inkscape:snap-object-midpoints="true"
     inkscape:snap-center="true"
     inkscape:snap-text-baseline="false"
     inkscape:window-width="1920"
     inkscape:window-height="1017"
     inkscape:window-x="-8"
     inkscape:window-y="-8"
     inkscape:window-maximized="1"
     fit-margin-top="0"
     fit-margin-left="0"
     fit-margin-right="0"
     fit-margin-bottom="0"
     inkscape:snap-global="false" />
  <metadata
     id="metadata5">
    <rdf:RDF>
      <cc:Work
         rdf:about="">
        <dc:format>image/svg+xml</dc:format>
        <dc:type
           rdf:resource="http://purl.org/dc/dcmitype/StillImage" />
        <dc:title />
      </cc:Work>
    </rdf:RDF>
  </metadata>
  <g
     inkscape:label="レイヤー 1"
     inkscape:groupmode="layer"
     id="layer1"
     style="display:inline;opacity:0.532374"
     transform="translate(-100.27036,-226.42959)" />
  <g
     inkscape:groupmode="layer"
     id="layer2"
     inkscape:label="レイヤー 2"
     transform="translate(-100.27036,-226.42959)">
    <path
       id="path836"
       style="opacity:0.999;fill:#000000;stroke:none;stroke-width:15.1181px;stroke-linecap:butt;stroke-linejoin:miter;stroke-opacity:1"
       d="M 15.117188 0 C -0.0009605315 0 0 15.119141 0 15.119141 L 0 136.0625 C 0 136.0625 0.018126083 151.18164 15.117188 151.18164 L 136.0625 151.18164 C 151.18061 151.18164 151.18164 136.0625 151.18164 136.0625 L 151.18164 15.119141 C 151.18164 15.119141 151.18061 0 136.0625 0 L 15.117188 0 z M 75.589844 14.962891 C 86.313195 14.962891 87.815307 15.779807 88.667969 22.078125 L 89.027344 24.738281 L 95.027344 25.634766 C 98.326947 26.127994 105.08519 27.682877 110.04688 29.089844 C 120.69146 32.10825 121.44531 32.649877 121.44531 37.265625 L 121.44531 40.117188 L 75.589844 40.117188 L 29.736328 40.117188 L 29.736328 37.265625 C 29.736328 32.754759 30.571707 32.119693 40.216797 29.308594 C 44.684425 28.006471 51.449156 26.434031 55.25 25.814453 L 62.160156 24.6875 L 62.517578 22.052734 C 63.366271 15.782649 64.876395 14.962891 75.589844 14.962891 z M 31.185547 46.929688 L 75.589844 46.929688 L 119.99609 46.929688 L 119.66406 50.205078 C 119.48227 52.006514 118.15991 68.692236 116.72656 87.283203 C 115.29321 105.87413 113.98094 121.90154 113.80859 122.90039 C 113.16025 126.65788 110.98845 129.63942 107.55664 131.48633 C 105.48954 132.59876 105.06083 132.61447 76.638672 132.70117 C 60.790147 132.74916 47.115456 132.61257 46.244141 132.39648 L 46.242188 132.39648 C 41.498883 131.2093 38.196651 127.67354 37.373047 122.90039 C 37.2007 121.90154 35.886511 105.87413 34.453125 87.283203 C 33.019777 68.692236 31.697609 52.006514 31.515625 50.205078 L 31.185547 46.929688 z M 75.707031 60.064453 C 74.754354 60.047058 73.778616 60.322872 73.142578 60.898438 C 72.235945 61.718935 72.183594 63.346312 72.183594 91.033203 C 72.183594 119.60046 72.206998 120.32255 73.232422 121.3457 C 74.576195 122.68944 76.393962 122.68271 77.849609 121.32812 L 77.849609 121.32617 L 78.996094 120.25781 L 78.996094 91.103516 C 78.996094 64.710281 78.913839 61.857825 78.128906 60.990234 C 77.588566 60.393164 76.659708 60.081848 75.707031 60.064453 z M 98.744141 60.083984 C 97.387022 60.14345 96.174032 60.774315 95.751953 61.75 C 95.298221 62.799008 92.097656 111.89915 92.097656 117.81445 C 92.097656 121.79554 95.121658 123.67316 97.904297 121.41992 C 99.092883 120.45754 99.132282 120.05903 100.85938 91.679688 C 102.73421 60.872002 102.7334 60.877346 100.125 60.222656 C 99.664748 60.107144 99.196513 60.064163 98.744141 60.083984 z M 52.273438 60.089844 C 50.932745 60.089844 49.587645 60.643033 49.089844 61.75 C 48.724741 62.561616 49.09393 71.63088 50.314453 91.673828 C 52.041584 120.08998 52.076133 120.44808 53.271484 121.41602 C 54.844977 122.69009 56.506508 122.65781 57.935547 121.32617 C 58.798602 120.52212 59.082031 119.65266 59.082031 117.81445 C 59.082031 111.89915 55.883458 62.799046 55.429688 61.75 C 54.950859 60.643033 53.61413 60.089844 52.273438 60.089844 z "
       transform="matrix(0.26458333,0,0,0.26458333,100.27036,226.42959)" />
    <g
       id="g866"
       style="opacity:0.5">
      <path
         style="color:#000000;font-style:normal;font-variant:normal;font-weight:normal;font-stretch:normal;font-size:medium;line-height:normal;font-family:sans-serif;font-variant-ligatures:normal;font-variant-position:normal;font-variant-caps:normal;font-variant-numeric:normal;font-variant-alternates:normal;font-variant-east-asian:normal;font-feature-settings:normal;font-variation-settings:normal;text-indent:0;text-align:start;text-decoration:none;text-decoration-line:none;text-decoration-style:solid;text-decoration-color:#000000;letter-spacing:normal;word-spacing:normal;text-transform:none;writing-mode:lr-tb;direction:ltr;text-orientation:mixed;dominant-baseline:auto;baseline-shift:baseline;text-anchor:start;white-space:normal;shape-padding:0;shape-margin:0;inline-size:0;clip-rule:nonzero;display:inline;overflow:visible;visibility:visible;isolation:auto;mix-blend-mode:normal;color-interpolation:sRGB;color-interpolation-filters:linearRGB;solid-color:#000000;solid-opacity:1;vector-effect:none;fill:#00ffff;fill-opacity:1;fill-rule:nonzero;stroke:none;stroke-width:2.3;stroke-linecap:round;stroke-linejoin:round;stroke-miterlimit:4;stroke-dasharray:none;stroke-dashoffset:0;stroke-opacity:1.0;color-rendering:auto;image-rendering:auto;shape-rendering:auto;text-rendering:auto;enable-background:accumulate;stop-color:#000000;stop-opacity:1;"
         d="m 120.14181,243.33931 v 13.14004"
         id="path868" />
    </g>
  </g>
</svg>
