<?xml version="1.0" encoding="UTF-8" standalone="no"?>
<svg
   xmlns:dc="http://purl.org/dc/elements/1.1/"
   xmlns:cc="http://creativecommons.org/ns#"
   xmlns:rdf="http://www.w3.org/1999/02/22-rdf-syntax-ns#"
   xmlns:svg="http://www.w3.org/2000/svg"
   xmlns="http://www.w3.org/2000/svg"
   xmlns:sodipodi="http://sodipodi.sourceforge.net/DTD/sodipodi-0.dtd"
   xmlns:inkscape="http://www.inkscape.org/namespaces/inkscape"
   sodipodi:docname="icon_triangle_right.svg"
   inkscape:version="1.0 (4035a4fb49, 2020-05-01)"
   id="svg868"
   version="1.1"
   viewBox="0 0 40 40"
   height="40mm"
   width="40mm">
  <defs
     id="defs862" />
  <sodipodi:namedview
     inkscape:snap-center="true"
     inkscape:snap-object-midpoints="true"
     inkscape:snap-midpoints="true"
     inkscape:snap-smooth-nodes="true"
     inkscape:snap-intersection-paths="true"
     inkscape:object-paths="true"
     inkscape:snap-bbox-midpoints="true"
     inkscape:snap-bbox-edge-midpoints="true"
     inkscape:bbox-nodes="true"
     inkscape:bbox-paths="true"
     inkscape:snap-bbox="true"
     inkscape:snap-global="false"
     inkscape:window-maximized="0"
     inkscape:window-y="0"
     inkscape:window-x="266"
     inkscape:window-height="1040"
     inkscape:window-width="1638"
     fit-margin-bottom="0"
     fit-margin-right="0"
     fit-margin-left="0"
     fit-margin-top="0"
     showgrid="true"
     inkscape:document-rotation="0"
     inkscape:current-layer="layer1"
     inkscape:document-units="mm"
     inkscape:cy="213.91239"
     inkscape:cx="1.3275126"
     inkscape:zoom="1.1626579"
     inkscape:pageshadow="2"
     inkscape:pageopacity="1"
     borderopacity="1.0"
     bordercolor="#666666"
     pagecolor="#cccccc"
     id="base">
    <inkscape:grid
       id="grid847"
       type="xygrid" />
  </sodipodi:namedview>
  <metadata
     id="metadata865">
    <rdf:RDF>
      <cc:Work
         rdf:about="">
        <dc:format>image/svg+xml</dc:format>
        <dc:type
           rdf:resource="http://purl.org/dc/dcmitype/StillImage" />
        <dc:title />
      </cc:Work>
    </rdf:RDF>
  </metadata>
  <g
     transform="translate(-59.490269,-85.892167)"
     id="layer1"
     inkscape:groupmode="layer"
     inkscape:label="レイヤー 1">
    <path
       id="path850"
       style="fill:#000000;stroke:none;stroke-width:4px;stroke-linecap:butt;stroke-linejoin:miter;stroke-opacity:1"
       d="m 99.490254,89.892029 c -8e-6,-4.000007 -3.999766,-3.999771 -3.999766,-3.999771 l -32.00011,2.2e-5 c 0,0 -4.000263,-2.44e-4 -4.000276,3.999744 l -8e-6,32.000126 c 0,0 2.69e-4,4.00026 4.000275,4.00027 l 32.000124,-1e-5 c 0,0 3.99975,-2.8e-4 3.999756,-4.00027 z m -6.074568,16.005231 c -0.002,0.6249 -0.335965,1.20165 -0.877374,1.51364 l -11.134194,6.37949 -11.090257,6.45597 c -1.171713,0.68572 -2.644514,-0.16322 -2.63757,-1.52084 l 0.0496,-12.83541 -0.0496,-12.830213 c -0.0024,-0.966847 0.778786,-1.752918 1.74541,-1.756722 0.312977,-0.003 0.620961,0.07849 0.892015,0.234874 l 11.09042,6.456993 11.13419,6.379468 c 0.544371,0.3136 0.879203,0.89462 0.877074,1.52314 z m -5.270997,-0.002 -8.491499,-4.86378 c 2.41e-4,-0.001 -0.0044,-0.004 -0.0058,-0.006 l -8.453206,-4.918586 0.03308,9.777176 c -6.38e-4,0.005 10e-7,0.0116 -3.54e-4,0.0164 l -0.03308,9.77719 8.453226,-4.91857 c 0.001,-3e-5 0.0038,-0.003 0.0058,-0.006 z"
       sodipodi:nodetypes="sccscscsscccccccccccccccccccccc" />
  </g>
</svg>
