<?xml version="1.0" encoding="UTF-8" standalone="no"?>
<svg
   xmlns:dc="http://purl.org/dc/elements/1.1/"
   xmlns:cc="http://creativecommons.org/ns#"
   xmlns:rdf="http://www.w3.org/1999/02/22-rdf-syntax-ns#"
   xmlns:svg="http://www.w3.org/2000/svg"
   xmlns="http://www.w3.org/2000/svg"
   xmlns:sodipodi="http://sodipodi.sourceforge.net/DTD/sodipodi-0.dtd"
   xmlns:inkscape="http://www.inkscape.org/namespaces/inkscape"
   sodipodi:docname="icon_triangle_down.svg"
   inkscape:version="1.0 (4035a4fb49, 2020-05-01)"
   id="svg868"
   version="1.1"
   viewBox="0 0 40 40"
   height="40mm"
   width="40mm">
  <defs
     id="defs862" />
  <sodipodi:namedview
     inkscape:snap-center="true"
     inkscape:snap-object-midpoints="true"
     inkscape:snap-midpoints="true"
     inkscape:snap-smooth-nodes="true"
     inkscape:snap-intersection-paths="true"
     inkscape:object-paths="true"
     inkscape:snap-bbox-midpoints="true"
     inkscape:snap-bbox-edge-midpoints="true"
     inkscape:bbox-nodes="true"
     inkscape:bbox-paths="true"
     inkscape:snap-bbox="true"
     inkscape:snap-global="false"
     inkscape:window-maximized="0"
     inkscape:window-y="0"
     inkscape:window-x="266"
     inkscape:window-height="1040"
     inkscape:window-width="1638"
     fit-margin-bottom="0"
     fit-margin-right="0"
     fit-margin-left="0"
     fit-margin-top="0"
     showgrid="true"
     inkscape:document-rotation="0"
     inkscape:current-layer="layer1"
     inkscape:document-units="mm"
     inkscape:cy="213.91239"
     inkscape:cx="1.3275126"
     inkscape:zoom="1.1626579"
     inkscape:pageshadow="2"
     inkscape:pageopacity="1"
     borderopacity="1.0"
     bordercolor="#666666"
     pagecolor="#cccccc"
     id="base">
    <inkscape:grid
       id="grid847"
       type="xygrid" />
  </sodipodi:namedview>
  <metadata
     id="metadata865">
    <rdf:RDF>
      <cc:Work
         rdf:about="">
        <dc:format>image/svg+xml</dc:format>
        <dc:type
           rdf:resource="http://purl.org/dc/dcmitype/StillImage" />
        <dc:title />
      </cc:Work>
    </rdf:RDF>
  </metadata>
  <g
     transform="translate(-59.490269,-85.892167)"
     id="layer1"
     inkscape:groupmode="layer"
     inkscape:label="レイヤー 1">
    <path
       id="path850"
       style="fill:#000000;stroke:none;stroke-width:4px;stroke-linecap:butt;stroke-linejoin:miter;stroke-opacity:1"
       d="m 95.490389,125.89224 c 4,1e-5 3.999754,-3.99975 3.999754,-3.99975 l -1e-5,-32.000112 c 0,0 2.45e-4,-4.000261 -3.999745,-4.000275 l -32.000128,-1e-5 c 0,0 -4.000261,2.73e-4 -4.000264,4.000272 l 1.1e-5,32.000125 c 0,0 2.66e-4,3.99976 4.000269,3.99975 z m -16.005228,-6.07456 c -0.624917,-0.002 -1.201654,-0.33598 -1.513598,-0.87746 L 71.592094,107.80602 65.13616,96.715737 c -0.686159,-1.171465 0.163223,-2.644517 1.520834,-2.637561 l 12.835402,0.0496 12.830217,-0.0496 c 0.966848,-0.0024 1.752921,0.778786 1.756723,1.745409 0.003,0.312977 -0.07849,0.620961 -0.234877,0.892014 l -6.456994,11.090419 -6.379473,11.13419 c -0.313602,0.54437 -0.894619,0.8792 -1.523133,0.87707 z m 0.002,-5.271 4.863763,-8.49148 c 0.002,-0.001 0.0041,-0.004 0.0058,-0.006 l 4.918584,-8.453205 -9.777176,0.03308 c -0.005,-7.41e-4 -0.01162,2.15e-4 -0.01637,-3.75e-4 l -9.777197,-0.03307 4.918574,8.453222 c 2.7e-5,0.001 0.0029,0.004 0.0058,0.006 z"
       sodipodi:nodetypes="sccscscsscccccccccccccccccccccc" />
  </g>
</svg>
