<?xml version="1.0" encoding="UTF-8" standalone="no"?>
<svg
   xmlns:dc="http://purl.org/dc/elements/1.1/"
   xmlns:cc="http://creativecommons.org/ns#"
   xmlns:rdf="http://www.w3.org/1999/02/22-rdf-syntax-ns#"
   xmlns:svg="http://www.w3.org/2000/svg"
   xmlns="http://www.w3.org/2000/svg"
   xmlns:sodipodi="http://sodipodi.sourceforge.net/DTD/sodipodi-0.dtd"
   xmlns:inkscape="http://www.inkscape.org/namespaces/inkscape"
   width="40.000004mm"
   height="40.000004mm"
   viewBox="0 0 40.000002 40.000003"
   version="1.1"
   id="svg868"
   inkscape:version="1.0 (4035a4fb49, 2020-05-01)"
   sodipodi:docname="cir_cross_white.svg">
  <defs
     id="defs862" />
  <sodipodi:namedview
     inkscape:guide-bbox="true"
     inkscape:snap-global="true"
     inkscape:snap-text-baseline="true"
     inkscape:snap-center="true"
     inkscape:snap-object-midpoints="true"
     inkscape:snap-midpoints="true"
     inkscape:snap-smooth-nodes="true"
     inkscape:snap-intersection-paths="true"
     inkscape:object-paths="true"
     inkscape:snap-bbox-midpoints="true"
     inkscape:snap-bbox-edge-midpoints="true"
     inkscape:bbox-nodes="true"
     inkscape:bbox-paths="true"
     inkscape:snap-bbox="true"
     showguides="true"
     id="base"
     pagecolor="#cccccc"
     bordercolor="#666666"
     borderopacity="1.0"
     inkscape:pageopacity="1"
     inkscape:pageshadow="2"
     inkscape:zoom="2.6114183"
     inkscape:cx="-18.217798"
     inkscape:cy="69.252482"
     inkscape:document-units="mm"
     inkscape:current-layer="layer1"
     inkscape:document-rotation="0"
     showgrid="true"
     fit-margin-top="0"
     fit-margin-left="0"
     fit-margin-right="0"
     fit-margin-bottom="0"
     inkscape:window-width="1920"
     inkscape:window-height="1017"
     inkscape:window-x="-8"
     inkscape:window-y="-8"
     inkscape:window-maximized="1">
    <inkscape:grid
       spacingy="0.099999993"
       spacingx="0.099999993"
       units="mm"
       originy="-3.0079641e-14"
       originx="0"
       id="grid831"
       type="xygrid" />
  </sodipodi:namedview>
  <metadata
     id="metadata865">
    <rdf:RDF>
      <cc:Work
         rdf:about="">
        <dc:format>image/svg+xml</dc:format>
        <dc:type
           rdf:resource="http://purl.org/dc/dcmitype/StillImage" />
        <dc:title></dc:title>
      </cc:Work>
    </rdf:RDF>
  </metadata>
  <g
     inkscape:label="レイヤー 1"
     inkscape:groupmode="layer"
     id="layer1"
     transform="translate(-60.142668,-86.083908)"
     style="opacity:1">
    <path
       d="m 80.142483,86.088042 c -11.025684,0 -19.996196,8.970516 -19.996196,19.996198 3e-6,11.02569 8.970515,19.99568 19.996196,19.99568 11.02568,0 19.996197,-8.96999 19.996197,-19.99568 0,-11.025682 -8.970513,-19.996198 -19.996197,-19.996198 z M 72.327456,96.30654 a 1.9999999,1.9999999 0 0 1 0.06098,0 1.9999999,1.9999999 0 0 1 1.390613,0.583943 l 6.363952,6.363957 6.362919,-6.363957 a 2,2 0 0 1 1.439189,-0.583943 2,2 0 0 1 1.390613,0.583943 2,2 0 0 1 0,2.830319 l -6.363436,6.362918 6.363436,6.36344 a 1.9999999,1.9999999 0 0 1 0,2.82825 1.9999999,1.9999999 0 0 1 -2.829802,0 l -6.362919,-6.36292 -6.363952,6.36292 a 2,2 0 0 1 -2.827735,0 2,2 0 0 1 0,-2.82825 l 6.36292,-6.36344 -6.36292,-6.362918 a 1.9999999,1.9999999 0 0 1 0,-2.830319 1.9999999,1.9999999 0 0 1 1.376144,-0.583943 z"
       style="color:#000000;font-style:normal;font-variant:normal;font-weight:normal;font-stretch:normal;font-size:medium;line-height:normal;font-family:sans-serif;font-variant-ligatures:normal;font-variant-position:normal;font-variant-caps:normal;font-variant-numeric:normal;font-variant-alternates:normal;font-variant-east-asian:normal;font-feature-settings:normal;font-variation-settings:normal;text-indent:0;text-align:start;text-decoration:none;text-decoration-line:none;text-decoration-style:solid;text-decoration-color:#000000;letter-spacing:normal;word-spacing:normal;text-transform:none;writing-mode:lr-tb;direction:ltr;text-orientation:mixed;dominant-baseline:auto;baseline-shift:baseline;text-anchor:start;white-space:normal;shape-padding:0;shape-margin:0;inline-size:0;clip-rule:nonzero;display:inline;overflow:visible;visibility:visible;isolation:auto;mix-blend-mode:normal;color-interpolation:sRGB;color-interpolation-filters:linearRGB;solid-color:#000000;solid-opacity:1;vector-effect:none;fill:#ffffff;fill-opacity:1;fill-rule:nonzero;stroke:none;stroke-width:3;stroke-linecap:round;stroke-linejoin:round;stroke-miterlimit:4;stroke-dasharray:none;stroke-dashoffset:0;stroke-opacity:1;color-rendering:auto;image-rendering:auto;shape-rendering:auto;text-rendering:auto;enable-background:accumulate;stop-color:#000000"
       id="path856" />
  </g>
</svg>
