<?xml version="1.0" encoding="UTF-8" standalone="no"?>
<svg
   xmlns:dc="http://purl.org/dc/elements/1.1/"
   xmlns:cc="http://creativecommons.org/ns#"
   xmlns:rdf="http://www.w3.org/1999/02/22-rdf-syntax-ns#"
   xmlns:svg="http://www.w3.org/2000/svg"
   xmlns="http://www.w3.org/2000/svg"
   xmlns:sodipodi="http://sodipodi.sourceforge.net/DTD/sodipodi-0.dtd"
   xmlns:inkscape="http://www.inkscape.org/namespaces/inkscape"
   inkscape:version="1.0 (4035a4fb49, 2020-05-01)"
   sodipodi:docname="gabage.svg"
   id="svg8"
   version="1.1"
   viewBox="0 0 40 40"
   height="40mm"
   width="40mm">
  <defs
     id="defs2" />
  <sodipodi:namedview
     inkscape:window-maximized="1"
     inkscape:window-y="-8"
     inkscape:window-x="-8"
     inkscape:window-height="1017"
     inkscape:window-width="1920"
     showgrid="true"
     inkscape:document-rotation="0"
     inkscape:current-layer="layer1"
     inkscape:document-units="mm"
     inkscape:cy="225.1272"
     inkscape:cx="64.480016"
     inkscape:zoom="1.3675584"
     inkscape:pageshadow="2"
     inkscape:pageopacity="0.0"
     borderopacity="1.0"
     bordercolor="#666666"
     pagecolor="#ffffff"
     id="base">
    <inkscape:grid
       id="grid833"
       type="xygrid" />
  </sodipodi:namedview>
  <metadata
     id="metadata5">
    <rdf:RDF>
      <cc:Work
         rdf:about="">
        <dc:format>image/svg+xml</dc:format>
        <dc:type
           rdf:resource="http://purl.org/dc/dcmitype/StillImage" />
        <dc:title></dc:title>
      </cc:Work>
    </rdf:RDF>
  </metadata>
  <g
     id="layer1"
     inkscape:groupmode="layer"
     inkscape:label="レイヤー 1">
    <g
       transform="matrix(3.1980134,0,0,3.1980134,-60.381151,-191.25297)"
       style="opacity:1"
       id="g847">
      <path
         d="m 23.282664,59.803675 a 0.30002999,0.30002999 0 0 0 -0.300718,0.300717 v 0.757692 h -2.345628 c -0.143597,-2.49e-4 -0.267379,0.101318 -0.295062,0.242221 l -0.263552,1.322446 c -2e-6,5.32e-4 -2e-6,0.0013 0,0.0021 -0.0032,0.01545 -0.0053,0.03079 -0.0061,0.04654 -5.3e-5,0.0033 -5.3e-5,0.0065 0,0.0099 5.32e-4,0.0046 0.0013,0.0093 0.0021,0.0139 1.72e-4,0.0098 7.56e-4,0.01969 0.0021,0.02941 5.32e-4,0.0046 0.0014,0.009 0.0023,0.01357 0.0016,0.0092 0.0032,0.01831 0.0057,0.02731 0.0029,0.0079 0.0061,0.01559 0.0097,0.02327 0.0024,0.0079 0.0048,0.01605 0.0078,0.02375 0.0018,0.0027 0.0043,0.0052 0.0063,0.0078 0.0047,0.01005 0.0098,0.01946 0.01551,0.02892 0.0013,0.0021 0.0028,0.0042 0.004,0.0061 0.0067,0.0089 0.01355,0.0173 0.02117,0.02537 0.0079,0.009 0.0164,0.01743 0.02537,0.02537 0.0032,0.0027 0.0065,0.0052 0.0099,0.0078 0.01,0.0078 0.02065,0.01517 0.03151,0.02165 l 0.0036,0.0036 c 0.0032,0.0021 0.0065,0.0044 0.0099,0.0063 0.01016,0.0051 0.02084,0.0094 0.03151,0.01341 0.009,0.0037 0.0182,0.0071 0.02747,0.0099 0.0083,0.003 0.01663,0.0056 0.02521,0.0078 0.01609,0.0033 0.03223,0.0055 0.04864,0.0061 0.0039,7.6e-5 0.008,7.6e-5 0.01196,0 h 9.523419 c 0.189876,5.31e-4 0.332619,-0.173571 0.295062,-0.359698 l -0.264464,-1.322618 c -0.02768,-0.140903 -0.151464,-0.24247 -0.295061,-0.242221 h -2.345467 v -0.757692 a 0.30002999,0.30002999 0 0 0 -0.300879,-0.300717 z m 0.298778,0.601434 h 3.105744 v 0.456975 h -3.105744 z m -2.41495,2.838152 c -0.0059,5.3e-4 -0.01177,0.001 -0.01761,0.0021 -0.0033,-5.3e-5 -0.0064,-5.3e-5 -0.0097,0 -0.0021,-1.8e-5 -0.0038,-1.8e-5 -0.0058,0 -0.0072,0.0011 -0.01456,0.0022 -0.02165,0.0037 -0.01191,0.0024 -0.02355,0.0057 -0.03506,0.0097 -0.0093,0.0028 -0.01852,0.0062 -0.02747,0.0099 h -0.0021 c -0.0087,0.0041 -0.01714,0.0084 -0.02537,0.01341 -0.01008,0.0053 -0.01998,0.01169 -0.02941,0.0181 -0.01246,0.0089 -0.02411,0.01827 -0.03506,0.02892 -0.0098,0.0098 -0.01908,0.02047 -0.02747,0.03151 -0.0034,0.0045 -0.0067,0.0089 -0.0099,0.01357 -0.0034,0.0051 -0.0061,0.01003 -0.0092,0.01535 -0.0074,0.01191 -0.01408,0.02451 -0.01971,0.03733 -0.0054,0.01207 -0.01014,0.02451 -0.0139,0.03717 -0.0013,0.0045 -0.0025,0.0088 -0.0037,0.01341 -0.0016,0.0091 -0.0031,0.01829 -0.004,0.02747 -7.94e-4,0.0045 -0.0016,0.0093 -0.0021,0.0139 -0.0011,0.0084 -0.0018,0.01688 -0.0021,0.02537 5.3e-4,0.0059 10e-4,0.0116 0.0021,0.01745 -1.8e-5,0.0021 -1.8e-5,0.0038 0,0.0058 -8e-6,0.0013 -8e-6,0.0027 0,0.004 5.29e-4,0.0065 0.001,0.01323 0.0021,0.01971 l 0.79114,8.446911 c 0.01376,0.154777 0.143391,0.273399 0.298779,0.273409 h 6.351423 c 0.15539,-1e-5 0.285004,-0.118632 0.298779,-0.273409 l 0.793241,-8.466625 c 0.01656,-0.176069 -0.121934,-0.328256 -0.298779,-0.328188 z m 6.351262,1.753566 a 0.4,0.4 0 0 1 0.03959,0.0019 0.4,0.4 0 0 1 0.357113,0.437746 l -0.529205,5.291075 a 0.4,0.4 0 0 1 -0.437745,0.357597 0.4,0.4 0 0 1 -0.359051,-0.437746 l 0.529043,-5.291075 a 0.4,0.4 0 0 1 0.385067,-0.359213 0.4,0.4 0 0 1 0.01519,-3.23e-4 z m -4.777222,3.23e-4 a 0.4,0.4 0 0 1 0.01761,0 0.4,0.4 0 0 1 0.394763,0.359213 l 0.529204,5.291075 a 0.4,0.4 0 0 1 -0.359213,0.437746 0.4,0.4 0 0 1 -0.437583,-0.357597 l -0.529204,-5.291238 a 0.4,0.4 0 0 1 0.357112,-0.437583 0.4,0.4 0 0 1 0.02731,-0.0016 z m 2.39459,0 a 0.4,0.4 0 0 1 1.61e-4,0 0.4,0.4 0 0 1 0.400418,0.398479 v 5.292691 a 0.4,0.4 0 0 1 -0.400418,0.398317 0.4,0.4 0 0 1 -0.400579,-0.398317 v -5.292691 a 0.4,0.4 0 0 1 0.400418,-0.398479 z"
         style="color:#000000;font-style:normal;font-variant:normal;font-weight:normal;font-stretch:normal;font-size:medium;line-height:normal;font-family:sans-serif;font-variant-ligatures:normal;font-variant-position:normal;font-variant-caps:normal;font-variant-numeric:normal;font-variant-alternates:normal;font-variant-east-asian:normal;font-feature-settings:normal;font-variation-settings:normal;text-indent:0;text-align:start;text-decoration:none;text-decoration-line:none;text-decoration-style:solid;text-decoration-color:#000000;letter-spacing:normal;word-spacing:normal;text-transform:none;writing-mode:lr-tb;direction:ltr;text-orientation:mixed;dominant-baseline:auto;baseline-shift:baseline;text-anchor:start;white-space:normal;shape-padding:0;shape-margin:0;inline-size:0;clip-rule:nonzero;display:inline;overflow:visible;visibility:visible;isolation:auto;mix-blend-mode:normal;color-interpolation:sRGB;color-interpolation-filters:linearRGB;solid-color:#000000;solid-opacity:1;vector-effect:none;fill:#000000;fill-opacity:1;fill-rule:nonzero;stroke:none;stroke-width:0.600001;stroke-linecap:round;stroke-linejoin:round;stroke-miterlimit:4;stroke-dasharray:none;stroke-dashoffset:0;stroke-opacity:1;color-rendering:auto;image-rendering:auto;shape-rendering:auto;text-rendering:auto;enable-background:accumulate;stop-color:#000000;stop-opacity:1"
         id="path851" />
    </g>
  </g>
</svg>
