<?xml version="1.0" encoding="UTF-8" standalone="no"?>
<svg
   xmlns:dc="http://purl.org/dc/elements/1.1/"
   xmlns:cc="http://creativecommons.org/ns#"
   xmlns:rdf="http://www.w3.org/1999/02/22-rdf-syntax-ns#"
   xmlns:svg="http://www.w3.org/2000/svg"
   xmlns="http://www.w3.org/2000/svg"
   xmlns:sodipodi="http://sodipodi.sourceforge.net/DTD/sodipodi-0.dtd"
   xmlns:inkscape="http://www.inkscape.org/namespaces/inkscape"
   width="40mm"
   height="40mm"
   viewBox="0 0 40 40"
   version="1.1"
   id="svg2966"
   inkscape:version="1.0 (4035a4fb49, 2020-05-01)"
   sodipodi:docname="gear4.svg">
  <defs
     id="defs2960" />
  <sodipodi:namedview
     id="base"
     pagecolor="#cccccc"
     bordercolor="#666666"
     borderopacity="1.0"
     inkscape:pageopacity="0"
     inkscape:pageshadow="2"
     inkscape:zoom="0.49403104"
     inkscape:cx="-122.99025"
     inkscape:cy="102.83601"
     inkscape:document-units="mm"
     inkscape:current-layer="layer1"
     inkscape:document-rotation="0"
     showgrid="false"
     fit-margin-top="0"
     fit-margin-left="0"
     fit-margin-right="0"
     fit-margin-bottom="0"
     inkscape:window-width="1920"
     inkscape:window-height="1017"
     inkscape:window-x="-8"
     inkscape:window-y="-8"
     inkscape:window-maximized="1"
     inkscape:snap-bbox="true"
     inkscape:bbox-paths="true"
     inkscape:bbox-nodes="true"
     inkscape:snap-bbox-edge-midpoints="true"
     inkscape:snap-bbox-midpoints="true"
     inkscape:object-paths="true"
     inkscape:snap-intersection-paths="true"
     inkscape:snap-smooth-nodes="true"
     inkscape:snap-midpoints="true"
     inkscape:snap-object-midpoints="true"
     inkscape:snap-center="true"
     inkscape:snap-global="true" />
  <metadata
     id="metadata2963">
    <rdf:RDF>
      <cc:Work
         rdf:about="">
        <dc:format>image/svg+xml</dc:format>
        <dc:type
           rdf:resource="http://purl.org/dc/dcmitype/StillImage" />
        <dc:title></dc:title>
      </cc:Work>
    </rdf:RDF>
  </metadata>
  <g
     inkscape:label="レイヤー 1"
     inkscape:groupmode="layer"
     id="layer1"
     transform="translate(-24.488633,-119.73938)">
    <path
       transform="matrix(0.26458333,0,0,0.26458333,24.488633,119.73938)"
       d="M 75.587891 -0.13867188 C 70.885732 -0.14834747 66.23118 0.28739665 61.675781 1.140625 A 15.557855 15.557855 0 0 1 52.769531 20.125 A 15.557855 15.557855 0 0 1 33.070312 13.039062 C 25.447916 18.287655 18.720756 24.99506 13.333984 32.990234 A 15.557855 15.557855 0 0 1 20.28125 52.613281 A 15.557855 15.557855 0 0 1 1.4921875 61.578125 C -0.34774321 71.040248 -0.34571126 80.541665 1.3378906 89.642578 A 15.557855 15.557855 0 0 1 20.279297 98.5625 A 15.557855 15.557855 0 0 1 13.15625 118.2793 C 18.62212 126.25724 25.691115 133.25254 34.162109 138.75977 A 15.557855 15.557855 0 0 1 52.771484 131.05078 A 15.557855 15.557855 0 0 1 60.470703 149.64258 C 70.346953 151.71606 80.287332 151.75894 89.792969 149.97852 A 15.557855 15.557855 0 0 1 98.716797 131.05273 A 15.557855 15.557855 0 0 1 118.40039 138.10742 C 126.03131 132.86737 132.76896 126.17372 138.1582 118.1875 A 15.557855 15.557855 0 0 1 131.20508 98.560547 A 15.557855 15.557855 0 0 1 149.98633 89.59375 C 151.81682 80.138959 151.8046 70.643757 150.11328 61.544922 A 15.557855 15.557855 0 0 1 131.20703 52.613281 A 15.557855 15.557855 0 0 1 138.28125 32.921875 C 133.04711 25.277667 126.35557 18.526587 118.36914 13.125 A 15.557855 15.557855 0 0 1 98.714844 20.125 A 15.557855 15.557855 0 0 1 89.779297 1.2480469 C 85.03983 0.3246705 80.29005 -0.12899628 75.587891 -0.13867188 z M 75.732422 25.722656 A 49.83885 49.83885 0 0 1 125.57031 75.560547 A 49.83885 49.83885 0 0 1 75.732422 125.40039 A 49.83885 49.83885 0 0 1 25.892578 75.560547 A 49.83885 49.83885 0 0 1 75.732422 25.722656 z "
       style="color:#000000;font-style:normal;font-variant:normal;font-weight:normal;font-stretch:normal;font-size:medium;line-height:normal;font-family:sans-serif;font-variant-ligatures:normal;font-variant-position:normal;font-variant-caps:normal;font-variant-numeric:normal;font-variant-alternates:normal;font-variant-east-asian:normal;font-feature-settings:normal;font-variation-settings:normal;text-indent:0;text-align:start;text-decoration:none;text-decoration-line:none;text-decoration-style:solid;text-decoration-color:#000000;letter-spacing:normal;word-spacing:normal;text-transform:none;writing-mode:lr-tb;direction:ltr;text-orientation:mixed;dominant-baseline:auto;baseline-shift:baseline;text-anchor:start;white-space:normal;shape-padding:0;shape-margin:0;inline-size:0;clip-rule:nonzero;display:inline;overflow:visible;visibility:visible;isolation:auto;mix-blend-mode:normal;color-interpolation:sRGB;color-interpolation-filters:linearRGB;solid-color:#000000;solid-opacity:1;vector-effect:none;fill:#000000;fill-opacity:1;fill-rule:nonzero;stroke:none;stroke-width:61.6619;stroke-linecap:round;stroke-linejoin:round;stroke-miterlimit:4;stroke-dasharray:none;stroke-dashoffset:0;stroke-opacity:1;color-rendering:auto;image-rendering:auto;shape-rendering:auto;text-rendering:auto;enable-background:accumulate;stop-color:#000000"
       id="path831" />
  </g>
</svg>
