<?xml version="1.0" encoding="UTF-8" standalone="no"?>
<svg
   xmlns:dc="http://purl.org/dc/elements/1.1/"
   xmlns:cc="http://creativecommons.org/ns#"
   xmlns:rdf="http://www.w3.org/1999/02/22-rdf-syntax-ns#"
   xmlns:svg="http://www.w3.org/2000/svg"
   xmlns="http://www.w3.org/2000/svg"
   xmlns:sodipodi="http://sodipodi.sourceforge.net/DTD/sodipodi-0.dtd"
   xmlns:inkscape="http://www.inkscape.org/namespaces/inkscape"
   width="40mm"
   height="40mm"
   viewBox="0 0 40 40"
   version="1.1"
   id="svg2966"
   inkscape:version="1.0 (4035a4fb49, 2020-05-01)"
   sodipodi:docname="icon_setting.svg">
  <defs
     id="defs2960" />
  <sodipodi:namedview
     id="base"
     pagecolor="#cccccc"
     bordercolor="#666666"
     borderopacity="1.0"
     inkscape:pageopacity="0"
     inkscape:pageshadow="2"
     inkscape:zoom="1.9761241"
     inkscape:cx="-59.211519"
     inkscape:cy="59.805934"
     inkscape:document-units="mm"
     inkscape:current-layer="layer1"
     inkscape:document-rotation="0"
     showgrid="false"
     fit-margin-top="0"
     fit-margin-left="0"
     fit-margin-right="0"
     fit-margin-bottom="0"
     inkscape:window-width="1920"
     inkscape:window-height="1017"
     inkscape:window-x="-8"
     inkscape:window-y="-8"
     inkscape:window-maximized="1"
     inkscape:snap-bbox="true"
     inkscape:bbox-paths="true"
     inkscape:bbox-nodes="true"
     inkscape:snap-bbox-edge-midpoints="true"
     inkscape:snap-bbox-midpoints="true"
     inkscape:object-paths="true"
     inkscape:snap-intersection-paths="true"
     inkscape:snap-smooth-nodes="true"
     inkscape:snap-midpoints="true"
     inkscape:snap-object-midpoints="true"
     inkscape:snap-center="true" />
  <metadata
     id="metadata2963">
    <rdf:RDF>
      <cc:Work
         rdf:about="">
        <dc:format>image/svg+xml</dc:format>
        <dc:type
           rdf:resource="http://purl.org/dc/dcmitype/StillImage" />
        <dc:title />
      </cc:Work>
    </rdf:RDF>
  </metadata>
  <g
     inkscape:label="レイヤー 1"
     inkscape:groupmode="layer"
     id="layer1"
     transform="translate(-24.488633,-119.73938)">
    <path
       d="m 40.242632,119.73938 -0.864927,4.04095 c -0.892531,0.28948 -1.746635,0.66165 -2.56786,1.09018 l -3.419305,-2.31104 -6.045735,6.04111 2.25702,3.48681 c -0.422228,0.81571 -0.755131,1.67834 -1.040663,2.5633 l -4.072529,0.78881 v 8.55033 l 4.059017,0.86532 c 0.286896,0.88911 0.652159,1.74047 1.076703,2.55886 l -2.315588,3.42818 6.041237,6.04556 3.477863,-2.25241 c 0.819128,0.42697 1.687497,0.76504 2.576876,1.0542 l 0.783872,4.04984 h 8.550519 l 0.864926,-4.04984 c 0.896874,-0.29051 1.773722,-0.62857 2.599394,-1.05865 l 3.387772,2.29294 6.045734,-6.04556 -2.239,-3.45073 c 0.43629,-0.8374 0.816543,-1.70676 1.108236,-2.61736 l 3.982439,-0.7702 v -8.54579 l -4.027495,-0.86014 c -0.294029,-0.90358 -0.63665,-1.78627 -1.072185,-2.61736 l 2.284045,-3.37414 -6.045734,-6.04554 -3.459854,2.24341 c -0.825226,-0.42697 -1.699272,-0.76089 -2.594894,-1.04965 l -0.783874,-4.04994 z m 4.266254,10.75323 c 5.149367,0 9.24429,4.09492 9.24429,9.24413 0,5.14923 -4.094923,9.24404 -9.24429,9.24404 -5.149377,0 -9.226269,-4.09481 -9.22628,-9.24404 1.1e-5,-5.14921 4.076903,-9.24413 9.22628,-9.24413 z"
       style="color:#000000;font-style:normal;font-variant:normal;font-weight:normal;font-stretch:normal;font-size:medium;line-height:normal;font-family:sans-serif;font-variant-ligatures:normal;font-variant-position:normal;font-variant-caps:normal;font-variant-numeric:normal;font-variant-alternates:normal;font-variant-east-asian:normal;font-feature-settings:normal;font-variation-settings:normal;text-indent:0;text-align:start;text-decoration:none;text-decoration-line:none;text-decoration-style:solid;text-decoration-color:#000000;letter-spacing:normal;word-spacing:normal;text-transform:none;writing-mode:lr-tb;direction:ltr;text-orientation:mixed;dominant-baseline:auto;baseline-shift:baseline;text-anchor:start;white-space:normal;shape-padding:0;shape-margin:0;inline-size:0;clip-rule:nonzero;display:inline;overflow:visible;visibility:visible;isolation:auto;mix-blend-mode:normal;color-interpolation:sRGB;color-interpolation-filters:linearRGB;solid-color:#000000;solid-opacity:1;vector-effect:none;fill:#000000;fill-opacity:1;fill-rule:nonzero;stroke:none;stroke-width:7.54073;stroke-linecap:round;stroke-linejoin:round;stroke-miterlimit:4;stroke-dasharray:none;stroke-dashoffset:0;stroke-opacity:1;color-rendering:auto;image-rendering:auto;shape-rendering:auto;text-rendering:auto;enable-background:accumulate;stop-color:#000000"
       id="path937" />
  </g>
</svg>
