<?xml version="1.0" encoding="UTF-8" standalone="no"?>
<svg
   xmlns:dc="http://purl.org/dc/elements/1.1/"
   xmlns:cc="http://creativecommons.org/ns#"
   xmlns:rdf="http://www.w3.org/1999/02/22-rdf-syntax-ns#"
   xmlns:svg="http://www.w3.org/2000/svg"
   xmlns="http://www.w3.org/2000/svg"
   xmlns:sodipodi="http://sodipodi.sourceforge.net/DTD/sodipodi-0.dtd"
   xmlns:inkscape="http://www.inkscape.org/namespaces/inkscape"
   sodipodi:docname="gear3.svg"
   inkscape:version="1.0 (4035a4fb49, 2020-05-01)"
   id="svg2966"
   version="1.1"
   viewBox="0 0 40 40"
   height="40mm"
   width="40mm">
  <defs
     id="defs2960" />
  <sodipodi:namedview
     inkscape:snap-global="true"
     inkscape:snap-center="true"
     inkscape:snap-object-midpoints="true"
     inkscape:snap-midpoints="true"
     inkscape:snap-smooth-nodes="true"
     inkscape:snap-intersection-paths="true"
     inkscape:object-paths="true"
     inkscape:snap-bbox-midpoints="true"
     inkscape:snap-bbox-edge-midpoints="true"
     inkscape:bbox-nodes="true"
     inkscape:bbox-paths="true"
     inkscape:snap-bbox="true"
     inkscape:window-maximized="1"
     inkscape:window-y="-8"
     inkscape:window-x="-8"
     inkscape:window-height="1017"
     inkscape:window-width="1920"
     fit-margin-bottom="0"
     fit-margin-right="0"
     fit-margin-left="0"
     fit-margin-top="0"
     showgrid="false"
     inkscape:document-rotation="0"
     inkscape:current-layer="layer1"
     inkscape:document-units="mm"
     inkscape:cy="26.12226"
     inkscape:cx="126.11225"
     inkscape:zoom="1.3973308"
     inkscape:pageshadow="2"
     inkscape:pageopacity="0"
     borderopacity="1.0"
     bordercolor="#666666"
     pagecolor="#cccccc"
     id="base" />
  <metadata
     id="metadata2963">
    <rdf:RDF>
      <cc:Work
         rdf:about="">
        <dc:format>image/svg+xml</dc:format>
        <dc:type
           rdf:resource="http://purl.org/dc/dcmitype/StillImage" />
        <dc:title></dc:title>
      </cc:Work>
    </rdf:RDF>
  </metadata>
  <g
     transform="translate(-24.488633,-119.73938)"
     id="layer1"
     inkscape:groupmode="layer"
     inkscape:label="レイヤー 1">
    <path
       d="m 48.242504,120.06985 c -2.507968,-0.48862 -5.025153,-0.4803 -7.435718,-0.0288 a 4.1163491,4.1163491 0 0 1 -2.356318,5.02292 4.1163491,4.1163491 0 0 1 -5.211804,-1.87465 c -2.016759,1.38869 -3.796911,3.16356 -5.222161,5.27895 a 4.1163491,4.1163491 0 0 1 1.838105,5.19191 4.1163491,4.1163491 0 0 1 -4.971171,2.37198 c -0.486815,2.50352 -0.486083,5.01726 -0.04063,7.42521 a 4.1163491,4.1163491 0 0 1 5.01136,2.35992 4.1163491,4.1163491 0 0 1 -1.884503,5.21667 c 1.446178,2.11083 3.316456,3.96163 5.55774,5.41875 a 4.1163491,4.1163491 0 0 1 4.92345,-2.03936 4.1163491,4.1163491 0 0 1 2.037205,4.9192 c 2.613091,0.54861 5.243273,0.55957 7.758306,0.0885 a 4.1163491,4.1163491 0 0 1 2.361119,-5.00751 4.1163491,4.1163491 0 0 1 5.207774,1.86684 c 2.019014,-1.38643 3.801721,-3.15752 5.227624,-5.27054 a 4.1163491,4.1163491 0 0 1 -1.839341,-5.19298 4.1163491,4.1163491 0 0 1 4.969063,-2.3723 c 0.484318,-2.50158 0.480986,-5.01405 0.03349,-7.42145 a 4.1163491,4.1163491 0 0 1 -5.002305,-2.36288 4.1163491,4.1163491 0 0 1 1.871756,-5.21021 c -1.384865,-2.02253 -3.155413,-3.8088 -5.26849,-5.23797 a 4.1163491,4.1163491 0 0 1 -5.199953,1.85212 4.1163491,4.1163491 0 0 1 -2.364594,-4.9944 z m -0.183829,11.12523 c 4.757395,1.97058 6.97327,7.32046 5.002752,12.07771 -1.970525,4.75727 -7.320514,6.97381 -12.077909,5.00323 -4.757404,-1.97058 -6.956836,-7.31419 -4.986322,-12.07147 1.970528,-4.75724 7.304075,-6.98005 12.061479,-5.00947 z"
       style="color:#000000;font-style:normal;font-variant:normal;font-weight:normal;font-stretch:normal;font-size:medium;line-height:normal;font-family:sans-serif;font-variant-ligatures:normal;font-variant-position:normal;font-variant-caps:normal;font-variant-numeric:normal;font-variant-alternates:normal;font-variant-east-asian:normal;font-feature-settings:normal;font-variation-settings:normal;text-indent:0;text-align:start;text-decoration:none;text-decoration-line:none;text-decoration-style:solid;text-decoration-color:#000000;letter-spacing:normal;word-spacing:normal;text-transform:none;writing-mode:lr-tb;direction:ltr;text-orientation:mixed;dominant-baseline:auto;baseline-shift:baseline;text-anchor:start;white-space:normal;shape-padding:0;shape-margin:0;inline-size:0;clip-rule:nonzero;display:inline;overflow:visible;visibility:visible;isolation:auto;mix-blend-mode:normal;color-interpolation:sRGB;color-interpolation-filters:linearRGB;solid-color:#000000;solid-opacity:1;vector-effect:none;fill:#000000;fill-opacity:1;fill-rule:nonzero;stroke:none;stroke-width:16.3147;stroke-linecap:round;stroke-linejoin:round;stroke-miterlimit:4;stroke-dasharray:none;stroke-dashoffset:0;stroke-opacity:1;color-rendering:auto;image-rendering:auto;shape-rendering:auto;text-rendering:auto;enable-background:accumulate;stop-color:#000000"
       id="path831" />
  </g>
</svg>
