<?xml version="1.0" encoding="UTF-8" standalone="no"?>
<svg
   xmlns:dc="http://purl.org/dc/elements/1.1/"
   xmlns:cc="http://creativecommons.org/ns#"
   xmlns:rdf="http://www.w3.org/1999/02/22-rdf-syntax-ns#"
   xmlns:svg="http://www.w3.org/2000/svg"
   xmlns="http://www.w3.org/2000/svg"
   xmlns:sodipodi="http://sodipodi.sourceforge.net/DTD/sodipodi-0.dtd"
   xmlns:inkscape="http://www.inkscape.org/namespaces/inkscape"
   sodipodi:docname="icon_gear.svg"
   inkscape:version="1.0 (4035a4fb49, 2020-05-01)"
   id="svg2966"
   version="1.1"
   viewBox="0 0 40 40"
   height="40mm"
   width="40mm">
  <defs
     id="defs2960" />
  <sodipodi:namedview
     inkscape:snap-center="true"
     inkscape:snap-object-midpoints="true"
     inkscape:snap-midpoints="true"
     inkscape:snap-smooth-nodes="true"
     inkscape:snap-intersection-paths="true"
     inkscape:object-paths="true"
     inkscape:snap-bbox-midpoints="true"
     inkscape:snap-bbox-edge-midpoints="true"
     inkscape:bbox-nodes="true"
     inkscape:bbox-paths="true"
     inkscape:snap-bbox="true"
     inkscape:window-maximized="1"
     inkscape:window-y="-8"
     inkscape:window-x="-8"
     inkscape:window-height="1017"
     inkscape:window-width="1920"
     fit-margin-bottom="0"
     fit-margin-right="0"
     fit-margin-left="0"
     fit-margin-top="0"
     showgrid="false"
     inkscape:document-rotation="0"
     inkscape:current-layer="layer1"
     inkscape:document-units="mm"
     inkscape:cy="82.506596"
     inkscape:cx="31.797753"
     inkscape:zoom="3.5612925"
     inkscape:pageshadow="2"
     inkscape:pageopacity="0"
     borderopacity="1.0"
     bordercolor="#666666"
     pagecolor="#cccccc"
     id="base" />
  <metadata
     id="metadata2963">
    <rdf:RDF>
      <cc:Work
         rdf:about="">
        <dc:format>image/svg+xml</dc:format>
        <dc:type
           rdf:resource="http://purl.org/dc/dcmitype/StillImage" />
        <dc:title />
      </cc:Work>
    </rdf:RDF>
  </metadata>
  <g
     transform="translate(19.066995,-120.15452)"
     id="layer1"
     inkscape:groupmode="layer"
     inkscape:label="レイヤー 1">
    <g
       style="opacity:1"
       id="g837"
       transform="matrix(1.3333333,0,0,1.3333333,6.3554679,-40.051427)">
      <path
         id="path839"
         d="m -6.4509132,120.67323 v 3.52991 c -1.3056604,0.28423 -2.549973,0.79965 -3.6741838,1.52193 l -2.49603,-2.49603 -3.371353,3.37135 2.49603,2.49603 c -0.722279,1.12421 -1.237701,2.36853 -1.52193,3.67419 h -3.529905 v 4.76783 h 3.529905 c 0.28423,1.30566 0.799652,2.54997 1.52193,3.67418 l -2.49603,2.49603 3.371353,3.37136 2.49603,-2.49603 c 1.1242157,0.72225 2.368528,1.23765 3.6741838,1.52186 v 3.52997 h 4.767834 v -3.5299 c 1.30566086,-0.28423 2.54997382,-0.79965 3.674185,-1.52193 l 2.49603,2.49603 3.371353,-3.37136 -2.49603,-2.49603 c 0.722285,-1.12423 1.2377073,-2.36857 1.521929,-3.67425 h 3.5299052 v -4.76776 H 6.8843878 c -0.2842285,-1.30566 -0.7996506,-2.54998 -1.521929,-3.67419 l 2.49603,-2.49603 -3.371353,-3.37135 -2.495963,2.49596 c -1.12423159,-0.72229 -2.36856786,-1.23771 -3.674252,-1.52193 v -3.52984 z m 2.369777,8.21914 c 0.00471,-1e-5 0.00943,-1e-5 0.01414,0 3.45848735,1e-5 6.2621441,2.80366 6.262156,6.26215 -6.4e-6,3.45849 -2.80366475,6.26215 -6.262156,6.26216 -3.4584912,-1e-5 -6.2621498,-2.80367 -6.2621558,-6.26216 3e-6,-3.45297 2.7950518,-6.25434 6.2480158,-6.26215 z"
         style="color:#000000;font-style:normal;font-variant:normal;font-weight:normal;font-stretch:normal;font-size:medium;line-height:normal;font-family:sans-serif;font-variant-ligatures:normal;font-variant-position:normal;font-variant-caps:normal;font-variant-numeric:normal;font-variant-alternates:normal;font-variant-east-asian:normal;font-feature-settings:normal;font-variation-settings:normal;text-indent:0;text-align:start;text-decoration:none;text-decoration-line:none;text-decoration-style:solid;text-decoration-color:#000000;letter-spacing:normal;word-spacing:normal;text-transform:none;writing-mode:lr-tb;direction:ltr;text-orientation:mixed;dominant-baseline:auto;baseline-shift:baseline;text-anchor:start;white-space:normal;shape-padding:0;shape-margin:0;inline-size:0;clip-rule:nonzero;display:inline;overflow:visible;visibility:visible;isolation:auto;mix-blend-mode:normal;color-interpolation:sRGB;color-interpolation-filters:linearRGB;solid-color:#000000;solid-opacity:1;vector-effect:none;fill:#ffffff;fill-opacity:1;fill-rule:nonzero;stroke:none;stroke-width:1.03742;stroke-linecap:butt;stroke-linejoin:round;stroke-miterlimit:4;stroke-dasharray:none;stroke-dashoffset:0;stroke-opacity:1;color-rendering:auto;image-rendering:auto;shape-rendering:auto;text-rendering:auto;enable-background:accumulate;stop-color:#000000;stop-opacity:1" />
      <path
         sodipodi:nodetypes="cccccccccccccccccccccccccccccccccccccccccccccccccssccccss"
         id="path841"
         d="m -6.4511719,120.1543 c -0.286342,6.5e-4 -0.5180028,0.23319 -0.5175781,0.51953 v 3.19336 c -1.0639652,0.27429 -2.080977,0.69371 -3.0273438,1.25195 l -2.2578122,-2.25781 c -0.202673,-0.20308 -0.531702,-0.20308 -0.734375,0 l -3.371094,3.37305 c -0.201777,0.20245 -0.201777,0.52997 0,0.73242 l 2.257813,2.25781 c -0.558811,0.94689 -0.979411,1.96268 -1.253907,3.02734 h -3.193359 c -0.286342,6.5e-4 -0.518003,0.23319 -0.517578,0.51953 v 4.76758 c 6.5e-4,0.28558 0.231997,0.51693 0.517578,0.51758 h 3.193359 c 0.274496,1.06466 0.695097,2.08046 1.253907,3.02734 l -2.257813,2.25782 c -0.203076,0.20267 -0.203076,0.5317 0,0.73437 l 3.371094,3.3711 c 0.202673,0.20308 0.531702,0.20308 0.734375,0 l 2.2578122,-2.25782 c 0.9464123,0.55826 1.963328,0.97962 3.0273438,1.25391 v 3.19336 c 6.499e-4,0.28558 0.2319969,0.51693 0.5175781,0.51758 h 4.7675781 c 0.2863436,4.3e-4 0.5188792,-0.23124 0.5195313,-0.51758 v -3.19336 c 1.06447536,-0.27444 2.08059675,-0.69525 3.0273437,-1.25391 l 2.2578126,2.25782 c 0.202449,0.20178 0.5299728,0.20178 0.7324218,0 l 3.3710938,-3.3711 c 0.2030762,-0.20267 0.2030762,-0.5317 0,-0.73437 l -2.2578125,-2.25782 c 0.5588146,-0.9469 0.9794156,-1.96266 1.2539062,-3.02734 h 3.1933589 c 0.286344,4.3e-4 0.51888,-0.23124 0.519532,-0.51758 v -4.76758 c 4.25e-4,-0.28711 -0.232427,-0.51996 -0.519532,-0.51953 H 7.2207031 c -0.274495,-1.06466 -0.6950959,-2.08045 -1.2539062,-3.02734 l 2.2578125,-2.25781 c 0.2017771,-0.20245 0.2017771,-0.52997 0,-0.73242 l -3.3710938,-3.37305 c -0.202449,-0.20178 -0.5299728,-0.20178 -0.7324218,0 l -2.2578126,2.25781 c -0.94676425,-0.55866 -1.96284918,-0.97947 -3.0273437,-1.25391 v -3.1914 c 4.254e-4,-0.28711 -0.2324263,-0.51996 -0.5195313,-0.51953 z m 2.3710907,9.25586 c 0.00432,-1e-5 0.0074,-1e-5 0.011719,0 h 0.00195 c 3.17815668,0 5.7421765,2.56598 5.7421874,5.74414 -5.8e-6,3.17816 -2.5640271,5.74413 -5.7421874,5.74414 -3.1781603,-1e-5 -5.7441348,-2.56598 -5.7441407,-5.74414 2.9e-6,-3.17306 2.5574211,-5.73697 5.7304688,-5.74414 z"
         style="color:#000000;font-style:normal;font-variant:normal;font-weight:normal;font-stretch:normal;font-size:medium;line-height:normal;font-family:sans-serif;font-variant-ligatures:normal;font-variant-position:normal;font-variant-caps:normal;font-variant-numeric:normal;font-variant-alternates:normal;font-variant-east-asian:normal;font-feature-settings:normal;font-variation-settings:normal;text-indent:0;text-align:start;text-decoration:none;text-decoration-line:none;text-decoration-style:solid;text-decoration-color:#000000;letter-spacing:normal;word-spacing:normal;text-transform:none;writing-mode:lr-tb;direction:ltr;text-orientation:mixed;dominant-baseline:auto;baseline-shift:baseline;text-anchor:start;white-space:normal;shape-padding:0;shape-margin:0;inline-size:0;clip-rule:nonzero;display:inline;overflow:visible;visibility:visible;isolation:auto;mix-blend-mode:normal;color-interpolation:sRGB;color-interpolation-filters:linearRGB;solid-color:#000000;solid-opacity:1;vector-effect:none;fill:#000000;fill-opacity:1;fill-rule:nonzero;stroke:none;stroke-width:1.03742;stroke-linecap:butt;stroke-linejoin:round;stroke-miterlimit:4;stroke-dasharray:none;stroke-dashoffset:0;stroke-opacity:1;color-rendering:auto;image-rendering:auto;shape-rendering:auto;text-rendering:auto;enable-background:accumulate;stop-color:#000000;stop-opacity:1" />
    </g>
  </g>
</svg>
