<?xml version="1.0" encoding="UTF-8" standalone="no"?>
<svg
   xmlns:dc="http://purl.org/dc/elements/1.1/"
   xmlns:cc="http://creativecommons.org/ns#"
   xmlns:rdf="http://www.w3.org/1999/02/22-rdf-syntax-ns#"
   xmlns:svg="http://www.w3.org/2000/svg"
   xmlns="http://www.w3.org/2000/svg"
   xmlns:sodipodi="http://sodipodi.sourceforge.net/DTD/sodipodi-0.dtd"
   xmlns:inkscape="http://www.inkscape.org/namespaces/inkscape"
   sodipodi:docname="logo_diyfxworld.svg"
   inkscape:version="1.0 (4035a4fb49, 2020-05-01)"
   id="svg8"
   version="1.1"
   viewBox="0 0 37.857438 36.482712"
   height="36.482712mm"
   width="37.857437mm"
   inkscape:export-filename="K:\SVG\Stompbox\logo_diyfxworld.png"
   inkscape:export-xdpi="95.999992"
   inkscape:export-ydpi="95.999992">
  <defs
     id="defs2" />
  <sodipodi:namedview
     inkscape:window-maximized="1"
     inkscape:window-y="-8"
     inkscape:window-x="-8"
     inkscape:window-height="1017"
     inkscape:window-width="1920"
     fit-margin-bottom="0"
     fit-margin-right="0"
     fit-margin-left="0"
     fit-margin-top="0"
     showgrid="false"
     inkscape:document-rotation="0"
     inkscape:current-layer="layer1"
     inkscape:document-units="mm"
     inkscape:cy="108.33531"
     inkscape:cx="71.888991"
     inkscape:zoom="2.8"
     inkscape:pageshadow="2"
     inkscape:pageopacity="0"
     borderopacity="1.0"
     bordercolor="#666666"
     pagecolor="#ffffff"
     id="base" />
  <metadata
     id="metadata5">
    <rdf:RDF>
      <cc:Work
         rdf:about="">
        <dc:format>image/svg+xml</dc:format>
        <dc:type
           rdf:resource="http://purl.org/dc/dcmitype/StillImage" />
        <dc:title></dc:title>
      </cc:Work>
    </rdf:RDF>
  </metadata>
  <g
     transform="translate(-36.005939,-57.053889)"
     id="layer1"
     inkscape:groupmode="layer"
     inkscape:label="レイヤー 1">
    <g
       aria-label="DIYFXWorld"
       id="text850"
       style="font-style:normal;font-variant:normal;font-weight:bold;font-stretch:normal;font-size:5.64444px;line-height:1.25;font-family:sans-serif;-inkscape-font-specification:'sans-serif Bold';fill:#ffd42a;fill-opacity:1;stroke:none;stroke-width:0.264583">
      <path
         d="m 39.883735,91.392377 q 0,0.573263 -0.261827,1.028015 -0.261827,0.451996 -0.661458,0.694531 -0.300412,0.181901 -0.658701,0.253559 -0.35829,0.07166 -0.848871,0.07166 h -1.446939 v -4.103795 h 1.48828 q 0.501605,0 0.865407,0.08544 0.363802,0.08268 0.611849,0.237023 0.424435,0.259071 0.66697,0.700043 0.24529,0.438216 0.24529,1.033528 z m -1.094161,-0.0083 q 0,-0.405143 -0.148828,-0.691774 -0.146072,-0.289388 -0.465777,-0.451996 -0.162608,-0.07993 -0.333485,-0.107487 -0.16812,-0.03032 -0.509874,-0.03032 h -0.267339 v 2.568661 h 0.267339 q 0.377583,0 0.553971,-0.03307 0.176389,-0.03583 0.34451,-0.126779 0.289387,-0.165365 0.424435,-0.440972 0.135048,-0.278364 0.135048,-0.686263 z"
         style="font-style:normal;font-variant:normal;font-weight:bold;font-stretch:normal;font-size:5.64444px;font-family:sans-serif;-inkscape-font-specification:'sans-serif Bold';fill:#ffd42a;fill-opacity:1;stroke-width:0.264583"
         id="path852" />
      <path
         d="m 42.909905,93.44014 h -2.403297 v -0.727604 h 0.672482 v -2.648587 h -0.672482 v -0.727604 h 2.403297 v 0.727604 h -0.672483 v 2.648587 h 0.672483 z"
         style="font-style:normal;font-variant:normal;font-weight:bold;font-stretch:normal;font-size:5.64444px;font-family:sans-serif;-inkscape-font-specification:'sans-serif Bold';fill:#ffd42a;fill-opacity:1;stroke-width:0.264583"
         id="path854" />
      <path
         d="m 47.388525,89.336345 -1.513085,2.516296 v 1.587499 h -1.058332 v -1.53789 l -1.53789,-2.565905 h 1.201649 l 0.887456,1.587499 0.857139,-1.587499 z"
         style="font-style:normal;font-variant:normal;font-weight:bold;font-stretch:normal;font-size:5.64444px;font-family:sans-serif;-inkscape-font-specification:'sans-serif Bold';fill:#ffd42a;fill-opacity:1;stroke-width:0.264583"
         id="path856" />
      <path
         d="m 50.874959,90.130095 h -1.887911 v 0.763432 h 1.750108 v 0.79375 h -1.750108 v 1.752863 h -1.05282 v -4.103795 h 2.940731 z"
         style="font-style:normal;font-variant:normal;font-weight:bold;font-stretch:normal;font-size:5.64444px;font-family:sans-serif;-inkscape-font-specification:'sans-serif Bold';fill:#ffd42a;fill-opacity:1;stroke-width:0.264583"
         id="path858" />
      <path
         d="m 55.326019,93.44014 h -1.223697 l -0.884699,-1.350477 -0.901237,1.350477 h -1.168575 l 1.455207,-2.067056 -1.42489,-2.036739 h 1.220941 l 0.854383,1.278819 0.879187,-1.278819 h 1.171332 l -1.433159,1.995398 z"
         style="font-style:normal;font-variant:normal;font-weight:bold;font-stretch:normal;font-size:5.64444px;font-family:sans-serif;-inkscape-font-specification:'sans-serif Bold';fill:#ffd42a;fill-opacity:1;stroke-width:0.264583"
         id="path860" />
      <path
         d="m 61.579551,89.336345 -1.105186,4.103795 h -1.171331 l -0.735872,-2.673392 -0.716579,2.673392 h -1.171332 l -1.105186,-4.103795 h 1.105186 l 0.631141,2.824976 0.755164,-2.824976 h 1.055577 l 0.719335,2.824976 0.661458,-2.824976 z"
         style="font-style:normal;font-variant:normal;font-weight:bold;font-stretch:normal;font-size:5.64444px;font-family:sans-serif;-inkscape-font-specification:'sans-serif Bold';fill:#ffd42a;fill-opacity:1;stroke-width:0.264583"
         id="path862" />
      <path
         d="m 65.396714,91.893982 q 0,0.763433 -0.446484,1.204405 -0.443728,0.438215 -1.248502,0.438215 -0.804774,0 -1.251258,-0.438215 -0.443728,-0.440972 -0.443728,-1.204405 0,-0.768945 0.446484,-1.20716 0.449241,-0.438216 1.248502,-0.438216 0.810286,0 1.251258,0.440972 0.443728,0.440972 0.443728,1.204404 z m -1.220941,0.752408 q 0.09646,-0.118511 0.143316,-0.283875 0.04961,-0.168121 0.04961,-0.463021 0,-0.272851 -0.04961,-0.457508 -0.04961,-0.184657 -0.137804,-0.2949 -0.08819,-0.112999 -0.212218,-0.159852 -0.124023,-0.04685 -0.267339,-0.04685 -0.143316,0 -0.256315,0.03858 -0.110243,0.03858 -0.212218,0.154341 -0.09095,0.107486 -0.146071,0.2949 -0.05237,0.187413 -0.05237,0.471288 0,0.253559 0.04685,0.440972 0.04685,0.184657 0.137804,0.297656 0.08819,0.107487 0.209462,0.157096 0.124023,0.04961 0.281119,0.04961 0.135048,0 0.256315,-0.0441 0.124024,-0.04685 0.209462,-0.154341 z"
         style="font-style:normal;font-variant:normal;font-weight:bold;font-stretch:normal;font-size:5.64444px;font-family:sans-serif;-inkscape-font-specification:'sans-serif Bold';fill:#ffd42a;fill-opacity:1;stroke-width:0.264583"
         id="path864" />
      <path
         d="m 68.356737,91.290402 h -0.08819 q -0.06339,-0.02205 -0.20395,-0.03307 -0.140559,-0.01102 -0.234266,-0.01102 -0.212218,0 -0.374826,0.02756 -0.162608,0.02756 -0.350021,0.09371 v 2.072568 h -0.992187 v -3.095072 h 0.992187 v 0.454753 q 0.327972,-0.28112 0.570507,-0.37207 0.242534,-0.09371 0.446484,-0.09371 0.05236,0 0.118511,0.0028 0.06615,0.0028 0.115755,0.0083 z"
         style="font-style:normal;font-variant:normal;font-weight:bold;font-stretch:normal;font-size:5.64444px;font-family:sans-serif;-inkscape-font-specification:'sans-serif Bold';fill:#ffd42a;fill-opacity:1;stroke-width:0.264583"
         id="path866" />
      <path
         d="m 69.916675,93.44014 h -0.992187 v -4.288452 h 0.992187 z"
         style="font-style:normal;font-variant:normal;font-weight:bold;font-stretch:normal;font-size:5.64444px;font-family:sans-serif;-inkscape-font-specification:'sans-serif Bold';fill:#ffd42a;fill-opacity:1;stroke-width:0.264583"
         id="path868" />
      <path
         d="m 73.863374,93.44014 h -0.992187 v -0.322461 q -0.256315,0.209462 -0.479557,0.30868 -0.223242,0.09922 -0.515386,0.09922 -0.564995,0 -0.903992,-0.43546 -0.338997,-0.435459 -0.338997,-1.174087 0,-0.394119 0.112999,-0.697287 0.115755,-0.305924 0.314192,-0.523654 0.187413,-0.206706 0.454753,-0.319705 0.267339,-0.115755 0.534678,-0.115755 0.278364,0 0.454752,0.06063 0.179145,0.05788 0.366558,0.148828 v -1.317404 h 0.992187 z M 72.871187,92.585757 V 91.06716 q -0.104731,-0.0441 -0.220486,-0.06339 -0.115755,-0.01929 -0.212218,-0.01929 -0.391362,0 -0.587043,0.24529 -0.195682,0.242535 -0.195682,0.675238 0,0.454753 0.157097,0.661458 0.157096,0.20395 0.504361,0.20395 0.135048,0 0.286632,-0.04961 0.151584,-0.05236 0.267339,-0.135047 z"
         style="font-style:normal;font-variant:normal;font-weight:bold;font-stretch:normal;font-size:5.64444px;font-family:sans-serif;-inkscape-font-specification:'sans-serif Bold';fill:#ffd42a;fill-opacity:1;stroke-width:0.264583"
         id="path870" />
    </g>
    <path
       d="m 47.46467,57.425074 c -0.679303,0 -1.226158,0.546954 -1.226158,1.226256 v 11.550809 h -0.916094 c -0.216646,0 -0.39108,0.174336 -0.39108,0.390981 v 2.921536 c 0,0.216645 0.174434,0.39108 0.39108,0.39108 h 0.916094 v 11.550809 c 0,0.679302 0.546855,1.22616 1.226158,1.22616 h 15.048886 c 0.679304,0 1.226159,-0.546858 1.226159,-1.22616 V 73.905736 h 0.80718 c 0.216645,0 0.391078,-0.174435 0.391078,-0.39108 V 70.59312 c 0,-0.216645 -0.174433,-0.390981 -0.391078,-0.390981 h -0.80718 V 58.65133 c 0,-0.679302 -0.546855,-1.226256 -1.226159,-1.226256 z"
       style="fill:none;stroke:#ffd42a;stroke-width:0.74237;stroke-linecap:round;stroke-linejoin:round;stroke-miterlimit:4;stroke-dasharray:none;stroke-opacity:1"
       id="rect833"
       inkscape:export-xdpi="95.999992"
       inkscape:export-ydpi="95.999992" />
    <circle
       cy="61.996143"
       cx="50.287025"
       id="path851"
       style="fill:none;stroke:#ffd42a;stroke-width:0.74237;stroke-linecap:round;stroke-linejoin:round;stroke-miterlimit:4;stroke-dasharray:none;stroke-opacity:1"
       r="2.4327438"
       inkscape:export-xdpi="95.999992"
       inkscape:export-ydpi="95.999992" />
    <circle
       style="fill:none;stroke:#ffd42a;stroke-width:0.74237;stroke-linecap:round;stroke-linejoin:round;stroke-miterlimit:4;stroke-dasharray:none;stroke-opacity:1"
       id="circle853"
       cx="59.582283"
       cy="61.887218"
       r="2.4327438"
       inkscape:export-xdpi="95.999992"
       inkscape:export-ydpi="95.999992" />
    <circle
       cy="67.296066"
       cx="54.934658"
       id="circle855"
       style="fill:none;stroke:#ffd42a;stroke-width:0.74237;stroke-linecap:round;stroke-linejoin:round;stroke-miterlimit:4;stroke-dasharray:none;stroke-opacity:1"
       r="1.734254"
       inkscape:export-xdpi="95.999992"
       inkscape:export-ydpi="95.999992" />
    <g
       transform="translate(0,-1.0583333)"
       id="g850">
      <circle
         inkscape:export-ydpi="95.999992"
         inkscape:export-xdpi="95.999992"
         r="1.711722"
         cy="81.583954"
         cx="54.934658"
         id="circle844"
         style="fill:none;stroke:#ffd42a;stroke-width:0.74237;stroke-linecap:round;stroke-linejoin:round;stroke-miterlimit:4;stroke-dasharray:none;stroke-opacity:1" />
      <circle
         inkscape:export-ydpi="95.999992"
         inkscape:export-xdpi="95.999992"
         r="2.9076056"
         style="fill:none;stroke:#ffd42a;stroke-width:0.74237;stroke-linecap:round;stroke-linejoin:round;stroke-miterlimit:4;stroke-dasharray:none;stroke-opacity:1"
         id="circle846"
         cx="54.934658"
         cy="81.583954" />
    </g>
    <circle
       style="fill:#ffcc00;stroke:none;stroke-width:1.3;stroke-linecap:round;stroke-linejoin:round"
       id="path846"
       cx="54.934658"
       cy="74.704582"
       r="0.69689363" />
  </g>
</svg>
