<?xml version="1.0" encoding="UTF-8" standalone="no"?>
<svg
   xmlns:dc="http://purl.org/dc/elements/1.1/"
   xmlns:cc="http://creativecommons.org/ns#"
   xmlns:rdf="http://www.w3.org/1999/02/22-rdf-syntax-ns#"
   xmlns:svg="http://www.w3.org/2000/svg"
   xmlns="http://www.w3.org/2000/svg"
   xmlns:sodipodi="http://sodipodi.sourceforge.net/DTD/sodipodi-0.dtd"
   xmlns:inkscape="http://www.inkscape.org/namespaces/inkscape"
   sodipodi:docname="stompbox.svg"
   inkscape:version="1.0 (4035a4fb49, 2020-05-01)"
   id="svg6523"
   version="1.1"
   viewBox="0 0 40 39.999999"
   height="40mm"
   width="40mm">
  <defs
     id="defs6517" />
  <sodipodi:namedview
     inkscape:window-maximized="0"
     inkscape:window-y="0"
     inkscape:window-x="0"
     inkscape:window-height="1041"
     inkscape:window-width="1904"
     fit-margin-bottom="0"
     fit-margin-right="0"
     fit-margin-left="0"
     fit-margin-top="0"
     showgrid="false"
     inkscape:document-rotation="0"
     inkscape:current-layer="layer1"
     inkscape:document-units="mm"
     inkscape:cy="285.78257"
     inkscape:cx="122.55822"
     inkscape:zoom="0.98994949"
     inkscape:pageshadow="2"
     inkscape:pageopacity="0.0"
     borderopacity="1.0"
     bordercolor="#666666"
     pagecolor="#ffffff"
     id="base" />
  <metadata
     id="metadata6520">
    <rdf:RDF>
      <cc:Work
         rdf:about="">
        <dc:format>image/svg+xml</dc:format>
        <dc:type
           rdf:resource="http://purl.org/dc/dcmitype/StillImage" />
        <dc:title></dc:title>
      </cc:Work>
    </rdf:RDF>
  </metadata>
  <g
     transform="translate(19.598755,33.819893)"
     id="layer1"
     inkscape:groupmode="layer"
     inkscape:label="レイヤー 1">
    <path
       id="path5895-3"
       style="display:inline;fill:#000000;fill-opacity:1;stroke:none;stroke-width:0.0363725;stroke-linecap:round;stroke-linejoin:round;stroke-miterlimit:4;stroke-dashoffset:0;stroke-opacity:1"
       d="m -8.1841931,-33.819825 c -1.286027,0 -2.3213089,1.035282 -2.3213089,2.321309 v 15.557093 c -0.05304,-0.113693 -0.106201,-0.227456 -0.159203,-0.341149 l -0.508808,1.93e-4 -0.159017,0.341148 c 4e-6,0.162833 0,0.325673 0,0.488509 l -0.0049,-0.0037 -0.145479,0.109204 -0.145668,-0.109204 -0.145483,0.109204 -0.145483,-0.109204 -0.145479,0.109204 -0.145483,-0.109204 h -0.109016 l -0.181946,0.181943 v 2.909813 l 0.181946,0.181757 h 0.109016 l 0.145483,-0.109016 0.145479,0.109016 0.145483,-0.109016 0.145483,0.109016 0.145668,-0.109016 0.145479,0.109016 0.0049,-0.0036 c 0,0.218409 7e-6,0.436815 0,0.655225 0.05298,0.113708 0.105986,0.227444 0.159017,0.341148 0.169649,0 0.339185,-9.4e-5 0.508808,-1.92e-4 0.05301,-0.11377 0.106161,-0.227437 0.159203,-0.341146 V 3.8588189 c 0,1.286027 1.0352819,2.3213091 2.3213089,2.3213091 h 17.17092 c 1.2860201,0 2.3214941,-1.0352821 2.3214941,-2.3213091 V -11.531553 c 0.05304,0.113708 0.106008,0.22738 0.159013,0.34115 0.169624,6.5e-5 0.33916,1.92e-4 0.508809,1.92e-4 0.05303,-0.113704 0.10603,-0.227444 0.159017,-0.341149 -7e-6,-0.218475 0,-0.436947 0,-0.655418 l 0.0051,0.0038 0.145479,-0.10902 0.145483,0.10902 0.145479,-0.10902 0.145482,0.10902 0.145483,-0.10902 0.14548,0.10902 h 0.109015 l 0.181946,-0.181758 v -2.909812 l -0.181944,-0.181964 h -0.109015 l -0.14548,0.109205 -0.145483,-0.109205 -0.145482,0.109205 -0.145479,-0.109205 -0.145483,0.109205 -0.145479,-0.109205 -0.0051,0.0037 c 0,-0.162836 -4e-6,-0.325672 0,-0.488508 l -0.159017,-0.341149 -0.508808,-1.92e-4 c -0.053,0.11369 -0.105971,0.227452 -0.159013,0.341146 v -15.55709 c -10e-7,-1.286027 -1.035475,-2.321309 -2.321495,-2.321309 z m 2.982365,1.917192 a 3.6372521,3.6372521 0 0 1 3.6372163,3.63722 3.6372521,3.6372521 0 0 1 -3.6372163,3.63722 3.6372521,3.6372521 0 0 1 -3.637409,-3.63722 3.6372521,3.6372521 0 0 1 3.637409,-3.63722 z m 11.1633321,0 a 3.6372521,3.6372521 0 0 1 3.637219,3.63722 3.6372521,3.6372521 0 0 1 -3.637219,3.63722 3.6372521,3.6372521 0 0 1 -3.6374048,-3.63722 3.6372521,3.6372521 0 0 1 3.6374048,-3.63722 z m -5.60159065,7.814637 a 2.727939,2.727939 0 0 1 0.019932,0 2.727939,2.727939 0 0 1 2.72786665,2.728052 2.727939,2.727939 0 0 1 -2.72786665,2.727871 2.727939,2.727939 0 0 1 -2.72805615,-2.727871 2.727939,2.727939 0 0 1 2.70813455,-2.728052 z m 0.030807,11.748453 a 0.90931304,0.90931304 0 0 1 0.010512,0 0.90931304,0.90931304 0 0 1 0.90935355,0.909353 0.90931304,0.90931304 0 0 1 -0.90935355,0.90935 0.90931304,0.90931304 0 0 1 -0.9093491,-0.90935 0.90931304,0.90931304 0 0 1 0.8988229,-0.909353 z m 0.010512,5.3890085 A 2.9098012,2.9098012 0 0 1 3.3110456,-4.040722 2.9098012,2.9098012 0 0 1 0.40123235,-1.1309095 2.9098012,2.9098012 0 0 1 -2.5085767,-4.040722 2.9098012,2.9098012 0 0 1 0.40123235,-6.9505345 Z" />
  </g>
</svg>
