<?xml version="1.0" encoding="UTF-8" standalone="no"?>
<svg
   xmlns:dc="http://purl.org/dc/elements/1.1/"
   xmlns:cc="http://creativecommons.org/ns#"
   xmlns:rdf="http://www.w3.org/1999/02/22-rdf-syntax-ns#"
   xmlns:svg="http://www.w3.org/2000/svg"
   xmlns="http://www.w3.org/2000/svg"
   xmlns:sodipodi="http://sodipodi.sourceforge.net/DTD/sodipodi-0.dtd"
   xmlns:inkscape="http://www.inkscape.org/namespaces/inkscape"
   width="2.6416991mm"
   height="2.6416969mm"
   viewBox="0 0 2.6416991 2.6416969"
   version="1.1"
   id="svg8"
   inkscape:version="1.0 (4035a4fb49, 2020-05-01)"
   sodipodi:docname="wating12.svg">
  <defs
     id="defs2" />
  <sodipodi:namedview
     id="base"
     pagecolor="#ffffff"
     bordercolor="#666666"
     borderopacity="1.0"
     inkscape:pageopacity="0.0"
     inkscape:pageshadow="2"
     inkscape:zoom="15.839192"
     inkscape:cx="-4.3123152"
     inkscape:cy="5.9160189"
     inkscape:document-units="mm"
     inkscape:current-layer="layer1"
     inkscape:document-rotation="0"
     showgrid="true"
     showguides="false"
     inkscape:snap-bbox="false"
     inkscape:bbox-nodes="true"
     inkscape:snap-bbox-edge-midpoints="true"
     inkscape:bbox-paths="true"
     inkscape:object-paths="true"
     inkscape:snap-intersection-paths="true"
     inkscape:snap-smooth-nodes="true"
     inkscape:snap-midpoints="true"
     inkscape:snap-nodes="false"
     inkscape:snap-others="true"
     inkscape:snap-object-midpoints="true"
     inkscape:snap-center="true"
     inkscape:window-width="1904"
     inkscape:window-height="1001"
     inkscape:window-x="0"
     inkscape:window-y="0"
     inkscape:window-maximized="0">
    <inkscape:grid
       originy="-79.377066"
       originx="-78.054154"
       type="xygrid"
       id="grid833" />
  </sodipodi:namedview>
  <metadata
     id="metadata5">
    <rdf:RDF>
      <cc:Work
         rdf:about="">
        <dc:format>image/svg+xml</dc:format>
        <dc:type
           rdf:resource="http://purl.org/dc/dcmitype/StillImage" />
        <dc:title></dc:title>
      </cc:Work>
    </rdf:RDF>
  </metadata>
  <g
     transform="translate(-78.05415,-79.377067)"
     inkscape:label="レイヤー 1"
     inkscape:groupmode="layer"
     id="layer1">
    <path
       id="path915"
       style="opacity:1;fill:#000000;stroke:none;stroke-width:0.264999;stroke-linecap:round;stroke-linejoin:round"
       d="m 79.300586,79.377067 a 1.3229164,1.3229164 0 0 0 -0.520383,0.139528 l 0.22996,0.398425 a 0.86474238,0.86474238 0 0 1 0.290423,-0.07803 z m 0.148828,5.18e-4 v 0.458886 a 0.86474238,0.86474238 0 0 1 0.290422,0.07803 l 0.22996,-0.397906 a 1.3229164,1.3229164 0 0 0 -0.520382,-0.13901 z m -0.799952,0.214456 a 1.3229164,1.3229164 0 0 0 -0.380338,0.380338 l 0.397909,0.22996 a 0.86474238,0.86474238 0 0 1 0.212389,-0.211873 z m 1.451076,5.18e-4 -0.229444,0.397391 a 0.86474238,0.86474238 0 0 1 0.212389,0.212389 l 0.397393,-0.229441 a 1.3229164,1.3229164 0 0 0 -0.380338,-0.380339 z m -1.90686,0.510045 a 1.3229164,1.3229164 0 0 0 -0.139528,0.520383 h 0.459404 a 0.86474238,0.86474238 0 0 1 0.07803,-0.290939 z m 2.362128,0 -0.397909,0.229444 a 0.86474238,0.86474238 0 0 1 0.07803,0.290939 h 0.459402 a 1.3229164,1.3229164 0 0 0 -0.139526,-0.520383 z m -2.501138,0.670761 a 1.3229164,1.3229164 0 0 0 0.140042,0.52038 l 0.397393,-0.22996 a 0.86474238,0.86474238 0 0 1 -0.07803,-0.29042 z m 2.181778,0 a 0.86474238,0.86474238 0 0 1 -0.07855,0.29042 l 0.397909,0.22996 a 1.3229164,1.3229164 0 0 0 0.140044,-0.52038 z m -1.569929,0.419611 -0.397393,0.229444 a 1.3229164,1.3229164 0 0 0 0.380857,0.380855 l 0.228925,-0.397391 a 0.86474238,0.86474238 0 0 1 -0.212389,-0.212908 z m 1.41645,0 a 0.86474238,0.86474238 0 0 1 -0.212389,0.212392 l 0.22996,0.398425 a 1.3229164,1.3229164 0 0 0 0.380854,-0.380857 z m -0.342615,0.287838 a 0.86474238,0.86474238 0 0 1 -0.290938,0.07803 v 0.45992 a 1.3229164,1.3229164 0 0 0 0.520382,-0.139528 z m -0.730705,5.18e-4 -0.229444,0.397391 a 1.3229164,1.3229164 0 0 0 0.520383,0.139526 v -0.458886 a 0.86474238,0.86474238 0 0 1 -0.290939,-0.07803 z" />
  </g>
</svg>
