<?xml version="1.0" encoding="UTF-8" standalone="no"?>
<svg
   xmlns:dc="http://purl.org/dc/elements/1.1/"
   xmlns:cc="http://creativecommons.org/ns#"
   xmlns:rdf="http://www.w3.org/1999/02/22-rdf-syntax-ns#"
   xmlns:svg="http://www.w3.org/2000/svg"
   xmlns="http://www.w3.org/2000/svg"
   xmlns:sodipodi="http://sodipodi.sourceforge.net/DTD/sodipodi-0.dtd"
   xmlns:inkscape="http://www.inkscape.org/namespaces/inkscape"
   width="2.6458309mm"
   height="2.6458359mm"
   viewBox="0 0 2.6458309 2.6458359"
   version="1.1"
   id="svg8"
   inkscape:version="1.0 (4035a4fb49, 2020-05-01)"
   sodipodi:docname="wating8.svg">
  <defs
     id="defs2" />
  <sodipodi:namedview
     id="base"
     pagecolor="#ffffff"
     bordercolor="#666666"
     borderopacity="1.0"
     inkscape:pageopacity="0.0"
     inkscape:pageshadow="2"
     inkscape:zoom="22.4"
     inkscape:cx="-10.295381"
     inkscape:cy="5.6682699"
     inkscape:document-units="mm"
     inkscape:current-layer="layer1"
     inkscape:document-rotation="0"
     showgrid="true"
     showguides="false"
     inkscape:snap-bbox="true"
     inkscape:bbox-nodes="true"
     inkscape:snap-bbox-edge-midpoints="true"
     inkscape:bbox-paths="true"
     inkscape:object-paths="true"
     inkscape:snap-intersection-paths="true"
     inkscape:snap-smooth-nodes="true"
     inkscape:snap-midpoints="true"
     inkscape:snap-nodes="true"
     inkscape:snap-others="true"
     inkscape:snap-object-midpoints="true"
     inkscape:snap-center="true"
     inkscape:window-width="1904"
     inkscape:window-height="1001"
     inkscape:window-x="0"
     inkscape:window-y="0"
     inkscape:window-maximized="0">
    <inkscape:grid
       originy="-68.791665"
       originx="-78.052089"
       type="xygrid"
       id="grid833" />
  </sodipodi:namedview>
  <metadata
     id="metadata5">
    <rdf:RDF>
      <cc:Work
         rdf:about="">
        <dc:format>image/svg+xml</dc:format>
        <dc:type
           rdf:resource="http://purl.org/dc/dcmitype/StillImage" />
        <dc:title></dc:title>
      </cc:Work>
    </rdf:RDF>
  </metadata>
  <g
     transform="translate(-78.052086,-68.791664)"
     inkscape:label="レイヤー 1"
     inkscape:groupmode="layer"
     id="layer1">
    <path
       d="m 79.449414,68.794251 v 0.458886 c 0.100622,0.0088 0.198915,0.03526 0.290422,0.07803 l 0.22996,-0.397906 c -0.162092,-0.08153 -0.339224,-0.12885 -0.520382,-0.13901 z m 0.651124,0.214974 -0.229444,0.397391 c 0.08264,0.05787 0.154524,0.129745 0.212389,0.212389 l 0.397393,-0.229441 c -0.0994,-0.151487 -0.228851,-0.280942 -0.380338,-0.380339 z m 0.455268,0.510045 -0.397909,0.229444 c 0.04283,0.09167 0.06924,0.190141 0.07803,0.290939 h 0.459402 c -0.01032,-0.181195 -0.05781,-0.358329 -0.139526,-0.520383 z m -0.31936,0.670761 c -0.009,0.100653 -0.0356,0.198947 -0.07855,0.29042 l 0.397909,0.22996 c 0.08189,-0.162014 0.129561,-0.339149 0.140044,-0.52038 z m -1.569929,0.419611 -0.397393,0.229444 c 0.09949,0.151726 0.229131,0.281364 0.380857,0.380855 l 0.228925,-0.397391 c -0.08269,-0.05802 -0.154571,-0.130079 -0.212389,-0.212908 z m 1.41645,0 c -0.05786,0.08264 -0.129745,0.154526 -0.212389,0.212392 l 0.22996,0.398425 c 0.151725,-0.09949 0.281363,-0.229131 0.380854,-0.380857 z m -0.342615,0.287838 c -0.09167,0.04283 -0.190141,0.06924 -0.290938,0.07803 v 0.45992 c 0.181195,-0.01032 0.358329,-0.05782 0.520382,-0.139528 z m -0.730705,5.18e-4 -0.229444,0.397391 c 0.162054,0.08171 0.339188,0.129205 0.520383,0.139526 v -0.458886 c -0.100798,-0.0088 -0.199271,-0.0352 -0.290939,-0.07803 z"
       style="opacity:1;fill:#000000;stroke:none;stroke-width:0.264999;stroke-linecap:round;stroke-linejoin:round"
       id="path907"
       sodipodi:nodetypes="ccccccccccccccscccccccccccccccccccccccccc" />
  </g>
</svg>
